<?xml version="1.0" encoding="UTF-8"?>
<svg id="svg1375" width="600" height="400" version="1.0" xmlns="http://www.w3.org/2000/svg" xmlns:cc="http://creativecommons.org/ns#" xmlns:dc="http://purl.org/dc/elements/1.1/" xmlns:rdf="http://www.w3.org/1999/02/22-rdf-syntax-ns#">
 <metadata id="metadata1399">
  <rdf:RDF>
   <cc:Work rdf:about="">
    <dc:format>image/svg+xml</dc:format>
    <dc:type rdf:resource="http://purl.org/dc/dcmitype/StillImage"/>
   </cc:Work>
  </rdf:RDF>
 </metadata>
 <desc id="desc1377">Flag of Wallis and Futuna</desc>
 <g id="g3291">
  <g>
   <rect id="rect1379" y="2.7533531e-14" width="600" height="400" fill="#002654"/>
   <rect id="rect1383" x="80" y="2.7533531e-14" width="160" height="159.99998" fill="#ffffff"/>
   <rect id="rect2278" x="160" y="2.7533531e-14" width="80" height="159.99998" fill="#ce1126" fill-rule="evenodd"/>
  </g>
  <rect id="rect3170" x="-10" y="-10" width="249.91736" height="169.87405" fill="none" stroke="#ffffff" stroke-width="4.20587"/>
  <g fill="#ffffff" fill-rule="evenodd">
   <path id="path3219" d="m354.99732 182.97585 12.875 20.5h36.625v71.5l-27.5-43-37 59h23l3.4375-6.5h23.03125l26.53125 42.5 26.53125-42.5h23.03125l3.4375 6.5h23l-37-59-27.5 43v-39.5h16.5l12.25-19.5h-28.75v-12.5h36.625l12.875-20.5zm22.17725 73.70095 8.97428 13.95119-15.97318 0.0886zm77.291 1.41801 7.17615 12.53317-14.55518-0.0886z"/>
   <path id="path3255" transform="translate(4.6085281,8.1431142)" d="m456 298.63999 4.73445 14.8436 15.58013-0.0842-12.65408 9.08966 4.8946 14.79156-12.5551-9.22588-12.5551 9.22588 4.8946-14.79156-12.65407-9.08966 15.58012 0.0842z"/>
   <path id="path3257" transform="translate(-40.505367,42.592725)" d="m456 298.63999 4.73445 14.8436 15.58013-0.0842-12.65408 9.08966 4.8946 14.79156-12.5551-9.22588-12.5551 9.22588 4.8946-14.79156-12.65407-9.08966 15.58012 0.0842z"/>
   <path id="path3263" transform="matrix(-1,0,0,1,827.61896,8.2039372)" d="m456 298.63999 4.73445 14.8436 15.58013-0.0842-12.65408 9.08966 4.8946 14.79156-12.5551-9.22588-12.5551 9.22588 4.8946-14.79156-12.65407-9.08966 15.58012 0.0842z"/>
   <path id="path2191" transform="translate(42.517453,-92.952019)" d="m456 298.63999 4.73445 14.8436 15.58013-0.0842-12.65408 9.08966 4.8946 14.79156-12.5551-9.22588-12.5551 9.22588 4.8946-14.79156-12.65407-9.08966 15.58012 0.0842z"/>
   <path id="path2193" transform="translate(-121.80101,-93.2457)" d="m456 298.63999 4.73445 14.8436 15.58013-0.0842-12.65408 9.08966 4.8946 14.79156-12.5551-9.22588-12.5551 9.22588 4.8946-14.79156-12.65407-9.08966 15.58012 0.0842z"/>
  </g>
 </g>
</svg>
