<svg xmlns="http://www.w3.org/2000/svg" width="900" height="600" xmlns:v="https://vecta.io/nano"><path d="M0 0h900v600H0z" fill="#78a3cd"/><path d="M0 112.5h900v375H0z" fill="#f5e03d"/><path d="M0 150h900v300H0z" fill="#c20002"/><g fill="#fff" stroke="#000"><g transform="scale(1.5)"><path d="M122.85 172.006h357.13v5.714H122.85z"/><path d="M455.469 174.8h.12v2.667h-.12zm7.998 0h.12v2.667h-.12zm-2 0h.12v2.667h-.12zm-2 0h.12v2.667h-.12zm-2 0h.12v2.667h-.12z" fill="#d8d8d8"/><path d="M101.581 189.823h357.13v5.714h-357.13z"/><path d="M454.001 184.103v17.142l33.333-8.571-33.333-8.571zm21.332-18.156v17.142l33.333-8.571-33.333-8.571z" fill="#999"/><path d="M240.807 161.784l6.278-24.215 4.485 29.147-.897-34.529 11.21 35.875-8.071-34.081 13.901 32.735-6.726-34.529" fill-rule="evenodd" stroke="none"/><path stroke-width="1.08" d="M59.812 206.667h485.7v8.571h-485.7z"/></g><path d="M674.209 300.829c-30.076 67.741-109.936 127.737-224.224 127.737-100.002 0-171.42-85.712-214.29-128.566 42.857-42.861 114.282-128.574 214.29-128.574 114.282 0 188.08 56.789 224.115 129.274h.3-.1l-.1.1.009.029Z" stroke-width="1.512"/></g><path d="M435.03 216.15c11.402 12.823 1.881 17.994 13.95 18.835 12.727.935-4.578 16.242 6.128 16.681 7.485.327 2.616 26.862 9.82 36.729 7.34 10.286 7.434 3.687 7.563 11.117.127 7.686-11.232 6.911-11.584 30.585-.59 13.644-12.929 14.517-13.711 23.297-.972 8.257 11.409 13.565 10.965 20.957-.456 7.37-4.941 5.543-6.483 13.948-.79 7.55 23.781 15.755 27.759 37.588-7.38 2.413-13.581 2.667-29.451 2.679-99.985.072-171.42-35.944-224.286-128.566 54.886-96.68 124.293-128.582 224.301-128.582 0 0-29.683 27.123-14.956 44.723l-.015.009Z"/><g transform="scale(1.5)" stroke="#fff"><path stroke="#000" d="M473.847 204.778c.782-2.807 25.198-4.32 28.251-.896 2.112 2.369 2.174 12.498-.672 15.022-4.09 3.628-27.008 2.684-27.578.225-.733-3.165-.663-11.978-.001-14.351Z" fill="#6b3f2a"/><path d="M195.267 192.377V169.52m19.18 0v22.857m19.195-22.857v22.857m-38.375 38.1V207.62m19.18 0v22.857m19.195-22.857v22.857m19.183-38.1V169.52m19.18 0v22.857M291.2 169.52v22.857m-38.375 38.1V207.62m19.18 0v22.857M291.2 207.62v22.857" stroke-width="6.927"/></g><path d="M466.001 288.566V254.28m28.772 0v34.286m28.792-34.286v34.286m-57.564 57.15V311.43m28.772 0v34.286m28.792-34.286v34.286m28.773-57.15V254.28m28.77 0v34.286M609.9 254.28v34.286m-57.563 57.15V311.43m28.77 0v34.286M609.9 311.43v34.286" stroke="#000" stroke-width="10.39"/><g fill="#222"><g stroke="#222"><path d="M767.025 311.311c-6.492 11.244 4.982-3.74 32.978 15.084 5.188 3.497 9.721 12.734 9.721 19.139-1.317-.881-2.295-2.841-3.745-4.115-2.031 2.035 1.939 11.366 2.52 15.775-4.377-2.449-3.956-3.609-5.41-6.619.29 3.639-2.096 10.297-.355 14.157-3.45-.986-2.548-5.78-4.349-6.338 1.225 4.368-.395 10.467.213 15.378-2.015-1.995-6.181-6.921-7.118-7.727-.157 2.338-2.532 10.502-2.616 12.713-1.71-1.033-4.193-5.335-4.478-6.42-2.126 2.671-11.026 7.829-11.51 10.838-5.822-5.142-16.699-4.883-18.64-11.529-1.716 3.772-4.2 5.046-9.11 7.8-1.939-10.533-9.194-22.372-5.314-31.401-2.75 1.63-5.013 3.261-7.761 5.267 2.604-15.255 15.88-33.143 34.979-42.002h-.005Z" stroke-width="1.282"/><path d="M121.174 322.141c-.363-3.274.338-3.666-1.677-6.135 2.933 1.227 3.044 4.488 6.61 2.174 1.309-.678 1.88-.7.289-4.337 3.718.173 15.894 4.348 17.844 4.444 5.12.236 14.466-5.378 20.953 1.525 6.227 6.294 4.148 12.826 4.148 21.543-2.502-1.199-1.296-1.79-3.951-4.907 1.99 7.619-.106 21.356-.106 29.436-1.022-1.948-.872-1.103-1.871-3.12-2.655 7.375-3.146.149-3.146 8.866-.958-3.418-3.397-4.714-4.463-6.512-2.58 5.6-13.836 6.349-7.166 11.993-6.02-3.53-12.023-4.504-14.753-7.679-1.177.759-6.82 4.213-7.914 6.182-10.585-4.87-4.109-1.249-12.402-8.266-1.435 2.942-.781 2.516-2.332 7.304-1.679-6.651-2.138-10.877-4.026-15.767-1.629 2.71-1.484 1.671-4.442 5.768-1.224-8.102-3.216-10.014-2.428-15.375-3.144 2.218-1.086 1.32-4.229 4.05 2.978-20.76 15.837-36.101 25.065-31.188l-.003.001Z" stroke-width="1.6"/></g><path d="M380.7 194.25c-5.937 11.482 10.395-3.819 35.997 15.404 4.745 3.571 11.546 17.68 11.546 24.22-5.451-1.16-15.104-6.54-15.104-6.54s12.673 7.31 12.673 20.39c-4.002-2.502-7.349-3.472-8.68-6.544 0 4.234 3.56 9.623 3.56 16.163-2.435-1.956-6.384-4.365-9.125-5.862 3.776 6.54-9.571 5.773-4.238 10.008-9.327-1.349-14.834-1.926-18.61-8.466-2.001 1.348-4.909 3.466-4.987 5.723.294.245-10.162-4.03-8.83-8.256-1.944 2.727-6.253 4.226-6.697 7.3-5.323-5.25-7.512-5.791-9.288-12.579-2.365 3.073-2.514 3.073-4.88 6.147-1.774-10.757-1.774-10.373 1.775-19.592-2.514 1.665-4.584 3.33-7.098 5.38 2.38-15.578 14.523-33.845 31.988-42.892l-.002-.004Z" stroke-width="1.239" stroke="#999"/></g><g fill="#999" stroke="#999"><path transform="matrix(.944909 .327333 -.261143 .967838 174.865563 -129.922657)" d="M273.401 250.158h2v47.141h-2z"/><path transform="matrix(.733113 -.680107 .508008 .892768 34.417165 177.22708)" d="M295.46 256.853h2v48.719h-2z"/><path transform="matrix(.984279 -.176621 .109658 .996295 64.292033 -30.381831)" d="M285.363 282.652h2v53.438h-2z"/><path transform="matrix(.642747 -.766078 .608299 .830801 42.595737 231.192609)" d="M302.024 250.314h2v47.48h-2z"/><path transform="matrix(.888713 -.458463 .306074 .967327 37.272742 72.68301)" d="M290.965 272.571h2v51.532h-2z"/><path d="M371.096 200.298h2v53.764h-2z"/><path transform="matrix(.258768 -.965939 .903944 .490189 148.042512 407.7363)" d="M302.024 179.445h2v34.037h-2z"/><path transform="rotate(8 269.81 191.31)" d="M371.096 186.275h2v50h-2z"/><path transform="matrix(.358319 -.933599 .845641 .587495 106.616534 369.61532)" d="M302.024 204.799h2v38.847h-2z"/><path transform="matrix(.70477 .709435 -.636269 .778421 104.900646 -52.937817)" d="M252.817 242.26h1.849v45.652h-1.849z"/><path transform="matrix(.942297 -.334777 .058052 1.040612 -138.570706 163.94629)" d="M279.221 243.392h1.89v46.165h-1.89z"/><path transform="matrix(.969381 .245561 -.32807 .94848 -28.155546 -7.902765)" d="M262.622 275.036h1.84v51.999h-1.84z"/><path transform="matrix(.893552 -.44896 .174392 1.031507 -148.093517 249.747323)" d="M287.542 201.58h1.904v38.236h-1.904z"/><path transform="matrix(.99791 -.064619 -.149423 1.01177 -93.110647 72.676049)" d="M270.789 262.279h1.861v49.587h-1.861z"/><path transform="rotate(25 135.663 345.567)" d="M119.607 319.357h1.837v52.419h-1.837z"/><path transform="matrix(.631542 -.775341 .597097 .850372 -138.964637 411.742282)" d="M293.355 165.444h1.943v31.381h-1.943z"/><path transform="matrix(.83403 .551719 -.537991 .843112 -55.141387 -26.194287)" d="M341.269 181.392h1.839v48.689h-1.839z"/><path transform="matrix(.7056 -.708611 .499214 .91589 -157.742369 361.980064)" d="M292.333 189.481h1.935v35.942h-1.935z"/><path transform="matrix(.93089 .365299 -.234024 .982405 570.182173 -36.323486)" d="M263.38 264.949h1.927v49.927h-1.927z"/><path transform="matrix(.689367 -.724413 .476918 .949443 436.869906 293.878738)" d="M298.208 259.652h2.017v49.249h-2.017z"/><path transform="matrix(.979959 -.199197 .097236 1.000685 465.221112 70.685047)" d="M272.02 302.535h1.906v57.197h-1.906z"/><path transform="matrix(.595188 -.803587 .579906 .897188 460.363428 376.222129)" d="M309.541 222.082h2.05v42.124h-2.05z"/><path transform="matrix(.863387 -.504543 .278134 .995695 439.588409 181.490337)" d="M284.244 284.681h1.954v53.823h-1.954z"/><path d="M756.404 318.685h1.899v55h-1.899z"/><path transform="matrix(.230152 -.973155 .89724 .551144 544.709216 541.691472)" d="M322.286 171.577h2.134v32.544h-2.134z"/><path transform="matrix(.987565 .15721 -.12319 .992981 431.948078 64.977752)" d="M353.157 199.711h1.903v53.607h-1.903z"/><path transform="matrix(.320894 -.947115 .833575 .656006 505.39998 500.712046)" d="M320.062 197.18h2.12v37.402h-2.12z"/></g></svg>