<svg xmlns="http://www.w3.org/2000/svg" xmlns:xlink="http://www.w3.org/1999/xlink" width="1260" height="630" xmlns:v="https://vecta.io/nano"><defs><clipPath id="A"><path fill="#00f" fill-rule="evenodd" d="M0 0h1260v630H0z"/></clipPath><path id="B" d="M151.782 358.275l7.755 7.627-1.34 1.362-7.755-7.626"/><path id="C" d="M153.122 359.637l-7.755 7.626-1.34-1.362 7.755-7.627"/></defs><path fill="#006400" d="M0 0h1260v630H0z"/><path fill="#ffd200" d="M0 90h1260v450H0z"/><path fill="#d40000" d="M0 180h1260v270H0z"/><path d="M0 270h1260v90H0z"/><path stroke="#000" stroke-width="30" d="M0 0v630l420-315z" clip-path="url(#A)"/><path fill="#fff" d="M0 0v630l420-315z"/><path fill="#d40000" d="m159.78 156.622 83.19 256.028L25.179 254.416h269.203L76.592 412.65z"/><path fill="#ffd200" fill-rule="evenodd" d="M152.542 215.851c-2.974-3.406-7.377-5.215-11.887-4.881s-8.599 2.769-11.041 6.575c-2.59-.063-5.179.127-7.731.566-2.388.411-4.459 1.884-5.63 4.005s-1.315 4.658-.392 6.897l8.724-.517c3.574 2.017 5.83 5.759 5.948 9.862l.983 34.668c-1.686 3.482-2.537 7.309-2.488 11.178.06 4.658.429 9.305 1.108 13.914.681 4.628-.841 9.307-4.113 12.65-5.073 5.18-9.483 10.969-13.131 17.234a13.3 13.3 0 0 0 1.236 15.154l9.94 38.462h74.607l4.14-32.633c1.758-13.854 9.657-26.18 21.511-33.563l2.936.833a4.29 4.29 0 0 0 3.811-7.505l-70.576-55.187-1.855-23.228a25.06 25.06 0 0 0-6.1-14.482"/><path d="M151.827 216.484l-.059-.066 1.43-1.264.059.066zm-.059-.066a13.62 13.62 0 0 0-1.248-1.237l1.258-1.438c.494.431.971.904 1.42 1.411zm.012-2.678v.003l-.629.719zm-1.258 1.445c-.443-.385-.906-.739-1.378-1.053l1.056-1.594c.556.369 1.085.771 1.581 1.202zm-1.378-1.053c-2.452-1.629-5.409-2.424-8.42-2.203l-.135-1.916c3.427-.253 6.804.659 9.611 2.524zm-8.42-2.203l-.088.008-.134-1.916.088-.008zm-.23-1.91h.008l.067.958zm.15 1.916a13.21 13.21 0 0 0-1.736.249l-.397-1.871c.671-.143 1.336-.243 1.983-.294zm-1.736.249a13.21 13.21 0 0 0-1.67.472l-.636-1.803a15.44 15.44 0 0 1 1.909-.54zm-1.67.472a13.43 13.43 0 0 0-6.817 5.405l-1.609-1.032a15.33 15.33 0 0 1 7.79-6.176zm-6.817 5.405l-.828.442.023-.958zm-.828.442l-.256-.004.023-1.916.28.004-.046 1.916zm-.256-.004h-.004l.015-.958zm-.004 0l-1.053-.004-.015-1.916 1.099.004zm-1.053-.004l-1.05.023-.067-1.916 1.101-.023zm-1.05.023a38.83 38.83 0 0 0-5.184.536l-.322-1.886c1.807-.311 3.627-.501 5.439-.566zm-5.184.536l-.038.008-.321-1.886.038-.008.322 1.886zm-.364-1.879h.004l.161.943-.165-.943zm.33 1.886a7.02 7.02 0 0 0-.865.208l-.56-1.827c.362-.112.731-.203 1.095-.267zm-.865.208a7.16 7.16 0 0 0-.819.314l-.786-1.744c.33-.149.679-.284 1.045-.397zm-1.609-1.43h.003l.393.872zm.793 1.744c-1.359.618-2.503 1.662-3.238 2.994l-1.677-.921c.937-1.701 2.394-3.032 4.122-3.817zm-4.918 2.08l.003-.008.838.461zm1.684.906l-.052.097-1.684-.906.052-.097zm-1.736-.805v-.004l.842.453-.842-.449zm1.684.897a7 7 0 0 0-.365.806l-1.788-.682a8.75 8.75 0 0 1 .469-1.021zm-2.153.128v-.004l.894.341-.894-.337zm1.788.674a7.63 7.63 0 0 0-.263.841l-1.855-.456a9.32 9.32 0 0 1 .33-1.058zm-2.118.388v-.003l.928.228zm1.855.449a7.04 7.04 0 0 0 .329 4.35l-1.766.725c-.729-1.769-.863-3.706-.418-5.525zm-.497 5.671l-.94-.595.883-.362zm-.113-1.916l8.724-.517.113 1.916-8.724.517zm8.724-.517l.52.124-.464.834zm.52.124l.22.125-.975 1.647-.175-.103.928-1.668zm.22.125a12.64 12.64 0 0 1 1.504 1.043l-1.197 1.49c-.399-.321-.828-.619-1.281-.886zm1.504 1.043c.472.38.917.794 1.325 1.235l-1.399 1.301a10.61 10.61 0 0 0-1.123-1.046zm1.325 1.235a12.67 12.67 0 0 1 3.392 8.267l-1.916.052c-.075-2.649-1.122-5.135-2.875-7.018zm3.392 8.267l.983 34.667-1.916.053-.983-34.668zm.983 34.667l-.098.441-.861-.415.958-.027zm-.098.441l-.212.452-1.736-.802.227-.48zm-1.948-.345v-.004l.868.401-.868-.397zm1.736.793l-.597 1.422-1.781-.689.643-1.526zm-2.382.736l.003-.003.891.344zm1.788.682l-.504 1.451-1.827-.569.543-1.564zm-.504 1.451a24.04 24.04 0 0 0-1.081 7.435l-1.916.023a25.9 25.9 0 0 1 1.17-8.026l1.827.569zm-1.081 7.435l.008.504-1.916.031-.008-.513 1.916-.023zm.008.504l.052 1.916-1.916.067-.052-1.953 1.916-.031zm.052 1.916l.088 1.915-1.916.104-.088-1.952zm.088 1.915l.949 9.452-1.894.276-.971-9.624zm.949 9.452l.008.045-1.894.276-.008-.045zm.008.045v.003l-.947.135zm0 .003a15.93 15.93 0 0 1 .163 2.065l-1.916.023a14.17 14.17 0 0 0-.141-1.817l1.894-.269zm.163 2.065a15.93 15.93 0 0 1-.107 2.043l-1.901-.217a14.31 14.31 0 0 0 .091-1.804l1.916-.023zm-.107 2.043a15.93 15.93 0 0 1-4.443 9.302l-1.362-1.34a14.01 14.01 0 0 0 3.903-8.179zm-4.443 9.302l-.003.008-.678-.678zm-.003.008c-.027.027.162-.214.111-.137l-1.594-1.063c.055-.084.093-.121.128-.156zm.111-.137l-.116.139-.681-.67zm-.116.139a87.2 87.2 0 0 0-2.065 2.188l-1.414-1.294a89.4 89.4 0 0 1 2.117-2.234zm-3.479.896v-.003l.707.647zm1.414 1.288l-1.993 2.257-1.451-1.243a91.32 91.32 0 0 1 2.03-2.303zm-3.449 1.014h.004l.726.622-.73-.622zm1.46 1.243a86.91 86.91 0 0 0-8.923 12.592l-1.653-.958c2.659-4.567 5.712-8.877 9.116-12.877zm-10.581 11.634h.004l.827.479-.831-.479zm1.662.958l-.038.064-1.662-.958.038-.064zm-.038.064c-.366.636-.667 1.286-.903 1.933l-1.796-.652a14.27 14.27 0 0 1 1.037-2.24zm-.903 1.933a12.28 12.28 0 0 0-.546 2.024l-1.879-.337a14.21 14.21 0 0 1 .629-2.339zm-.546 2.024c-.631 3.504.272 7.194 2.628 10.049l-1.475 1.212c-2.718-3.293-3.761-7.553-3.032-11.597zm2.628 10.049l.187.366-.924.24zm.187.366l9.941 38.462-1.849.48-9.941-38.462zm9.016 39.659l-.924-.718.924-.24zm0-1.916h74.607v1.916H124.07zm75.553 1.077l-.947.838v-.958zm-1.894-.239l4.14-32.633 1.894.239-4.141 32.633zm6.038-32.397l-.003.003-.947-.12zm-1.901-.232c.015-.116-.027.233.012-.059l1.894.248c-.035.259.015-.108-.003.043l-1.901-.232zm1.904.185v.004l-.947-.124.947.12zm-1.894-.239a47.35 47.35 0 0 1 1.119-5.832l1.855.471c-.476 1.843-.84 3.716-1.08 5.599zm1.119-5.832a47.31 47.31 0 0 1 1.822-5.596l1.781.704a45.5 45.5 0 0 0-1.748 5.364zm1.822-5.596a47.37 47.37 0 0 1 19.006-22.777l1.01 1.625a45.46 45.46 0 0 0-18.235 21.856zm19.006-22.777l.764-.108-.258.921zm.764-.108l2.936.833-.517 1.842-2.936-.833zm2.936.833h.003l-.262.921zm.003 0l.023.008-.523 1.842-.023-.008zm-.493 1.848h-.008l.262-.921zm.508-1.842a3.32 3.32 0 0 0 .648.107l-.141 1.916a5.27 5.27 0 0 1-1.014-.182zm.648.107a3.53 3.53 0 0 0 .641-.012l.224 1.901c-.341.04-.68.05-1.006.027zm.641-.012c1.077-.128 2.06-.781 2.574-1.796l1.708.86a5.25 5.25 0 0 1-4.058 2.836zm4.285-.938l-.003.003-.854-.43zm-1.714-.854l.012-.023 1.714.854-.012.023zm.012-.023a3.43 3.43 0 0 0 .238-.615l1.842.508a5.34 5.34 0 0 1-.366.96zm2.083-.11l-.003.003-.921-.254zm-1.849-.502a3.52 3.52 0 0 0 .107-.632l1.916.141c-.023.324-.084.658-.174.993zm2.023-.494v.003l-.958-.07zm-1.916-.135a3.34 3.34 0 0 0-1.265-2.877l1.175-1.505a5.25 5.25 0 0 1 2.006 4.517zm-1.265-2.877l-70.576-55.187 1.175-1.506 70.576 55.188zm-70.576-55.187l-.371-.678.958-.075zm-.371-.678l-1.855-23.228 1.916-.15 1.855 23.228zm-1.855-23.228l-.008-.081 1.916-.15.008.082zm1.909-.234v.003l-.958.075zm-1.916.156a24.02 24.02 0 0 0-.271-2.144l1.886-.322c.138.794.24 1.569.301 2.309zm-.271-2.144c-.122-.702-.278-1.402-.464-2.096l1.848-.493a25.74 25.74 0 0 1 .501 2.267zm-.464-2.096a24.11 24.11 0 0 0-5.12-9.61l1.438-1.258c2.623 3.006 4.509 6.562 5.531 10.375m-6.44 53.283c-.008.019.015-.04-.012.038l-1.834-.554c.008-.027.015-.042.04-.112l1.803.628zm-.012.038l-.008.023-.909-.3zm-.008.023c-.172.516-.31 1.027-.415 1.527l-1.87-.389a15.77 15.77 0 0 1 .467-1.738zm-.415 1.527c-.108.519-.188 1.04-.236 1.55l-1.901-.172a15.83 15.83 0 0 1 .266-1.767zm-.236 1.55a13.87 13.87 0 0 0 1.535 7.754l-1.693.891a15.77 15.77 0 0 1-1.743-8.817zm1.535 7.754l.012.019-1.692.891-.012-.019 1.693-.891zm.012.019a13.67 13.67 0 0 0 .819 1.356l-1.579 1.077a15.64 15.64 0 0 1-.932-1.543zm.819 1.356c.299.437.622.855.958 1.245l-1.445 1.249a15.85 15.85 0 0 1-1.092-1.416zm.958 1.245a13.85 13.85 0 0 0 6.7 4.265l-.517 1.842c-2.985-.845-5.63-2.548-7.628-4.859"/><path d="M161.036 254.351l-28.971 19.798-1.077-1.579 28.972-19.798m-15.823-29.821v-.008h1.916v.008zm0-.008a2.83 2.83 0 0 0-.831-2.005l1.347-1.356a4.75 4.75 0 0 1 1.4 3.361zm-.831-2.005a2.84 2.84 0 0 0-2-.831l.008-1.916a4.74 4.74 0 0 1 3.34 1.391l-1.347 1.356zm-1.997-2.747h.003l-.003.958zm0 1.916h-.015v-1.916h.015zm-.015 0h-.008v-1.916h.008zm-.008 0c-.783.001-1.494.32-2.005.831l-1.355-1.347a4.75 4.75 0 0 1 3.36-1.4zm-2.005.831a2.84 2.84 0 0 0-.831 2l-1.916-.008c.004-1.302.536-2.484 1.391-3.34l1.355 1.347zm-2.747 1.996v-.003l.958.003zm1.916 0v.015h-1.916v-.015zm0 .015v.008h-1.916v-.008zm0 .008a2.83 2.83 0 0 0 .831 2.005l-1.347 1.356c-.862-.861-1.398-2.052-1.4-3.361zm.831 2.005a2.84 2.84 0 0 0 2 .831l-.008 1.916c-1.302-.004-2.484-.536-3.34-1.391l1.347-1.356zm1.996 2.747h-.003l.003-.958zm0-1.916h.015v1.916h-.015zm.015 0h.008v1.916h-.008zm.008 0a2.83 2.83 0 0 0 2.005-.831l1.355 1.347a4.75 4.75 0 0 1-3.36 1.4zm2.005-.831a2.84 2.84 0 0 0 .831-1.999l1.916.008a4.74 4.74 0 0 1-1.391 3.34l-1.355-1.347zm2.747-1.996v.003l-.958-.003zm-1.916 0v-.015h1.916v.015m-8.646 90.733l.067-.034.854 1.714-.067.034-.854-1.714zm.924 1.677l-.003.003-.427-.857zm-.86-1.707a15.32 15.32 0 0 0 2.209-1.36l1.138 1.534a17.17 17.17 0 0 1-2.487 1.533zm2.209-1.36a15.23 15.23 0 0 0 1.915-1.684l1.377 1.325c-.656.682-1.377 1.319-2.154 1.893zm1.915-1.684c2.999-3.119 4.597-7.445 4.207-11.928l1.916-.165c.439 5.035-1.363 9.901-4.746 13.419m7.581-18.478l-.067.034-.854-1.714.067-.034.854 1.714zm-.928-1.677l.008-.003.427.857zm.869 1.707a5.19 5.19 0 0 0-.741.458l-1.145-1.527c.327-.246.668-.461 1.017-.639zm-.741.458a5.17 5.17 0 0 0-.641.57l-1.384-1.316c.266-.279.563-.543.88-.781zm-.641.57c-.995 1.045-1.524 2.495-1.394 3.998l-1.916.165c-.178-2.051.553-4.038 1.926-5.48m13.583 28.373l-.015.008-.71-1.775.015-.008zm-.015.008l-3.061 1.252-.734-1.766 3.085-1.261zm-3.061 1.252l-3.052 1.285-.75-1.76 3.067-1.291zm-3.052 1.285a325.39 325.39 0 0 0-15.465 7.083l-.838-1.72a326.6 326.6 0 0 1 15.554-7.122"/><path d="M160.61 319.808l.035-.012.689 1.781-.035.012zm.738 1.765l-.015.003-.344-.891zm-.719-1.775a24.31 24.31 0 0 0 3.114-1.525l.958 1.653a26.36 26.36 0 0 1-3.353 1.647zm3.114-1.525c.972-.565 1.917-1.211 2.824-1.927l1.191 1.506a26.2 26.2 0 0 1-3.056 2.075zm2.824-1.927a24.32 24.32 0 0 0 8.858-14.705l1.879.343a26.23 26.23 0 0 1-9.547 15.867m-16.569 6.011h62.259v1.916h-62.259m13.391 10.717v-.008h1.916v.008zm0-.008a6.25 6.25 0 0 0-1.837-4.423l1.355-1.356c1.477 1.477 2.395 3.523 2.397 5.778zm-.485-5.778h.004l-.677.678.673-.678zm-1.347 1.356a6.25 6.25 0 0 0-4.412-1.832v-1.916a8.15 8.15 0 0 1 5.759 2.392zm-4.412-1.832h-.015v-1.916h.015zm-.015 0h-.008v-1.916h.008zm-.008 0a6.24 6.24 0 0 0-4.422 1.832l-1.356-1.347c1.479-1.481 3.524-2.399 5.777-2.401zm-4.422 1.832a6.25 6.25 0 0 0-1.832 4.413h-1.916a8.15 8.15 0 0 1 2.392-5.76zm-1.832 4.413v.015h-1.916v-.015zm0 .015v.008h-1.916v-.008zm0 .008a6.24 6.24 0 0 0 1.832 4.422l-1.347 1.355a8.16 8.16 0 0 1-2.401-5.777zm1.832 4.422c1.129 1.127 2.691 1.828 4.412 1.831v1.916a8.15 8.15 0 0 1-5.759-2.392zm4.412 1.831h.015v1.916h-.015zm.015 0h.008v1.916h-.008zm.008 0a6.25 6.25 0 0 0 4.422-1.837l1.356 1.355c-1.478 1.477-3.523 2.395-5.778 2.397zm5.778-.485v.004l-.678-.678.678.674zm-1.356-1.347a6.25 6.25 0 0 0 1.831-4.412h1.916a8.15 8.15 0 0 1-2.391 5.759zm1.831-4.412v-.015h1.916v.015m26.807-.015v-.008h1.916v.008zm0-.008c-.001-1.725-.705-3.291-1.837-4.423l1.356-1.356c1.477 1.477 2.395 3.523 2.397 5.778zm-.485-5.778h.004l-.678.678.674-.678zm-1.347 1.356a6.25 6.25 0 0 0-4.412-1.832v-1.916a8.15 8.15 0 0 1 5.759 2.392zm-4.412-1.832h-.015v-1.916h.015zm-.015 0h-.008v-1.916h.008zm-.008 0a6.24 6.24 0 0 0-4.423 1.832l-1.355-1.347a8.16 8.16 0 0 1 5.778-2.401zm-4.423 1.832a6.25 6.25 0 0 0-1.831 4.413h-1.916a8.15 8.15 0 0 1 2.392-5.76zm-1.831 4.413v.015h-1.916v-.015zm0 .015v.008h-1.916v-.008zm0 .008a6.24 6.24 0 0 0 1.832 4.422l-1.347 1.355a8.16 8.16 0 0 1-2.401-5.777zm1.832 4.422a6.25 6.25 0 0 0 4.413 1.831v1.916a8.15 8.15 0 0 1-5.76-2.392zm4.413 1.831h.015v1.916h-.015zm.015 0h.008v1.916h-.008zm.008 0c1.724-.001 3.29-.705 4.422-1.837l1.356 1.355a8.16 8.16 0 0 1-5.777 2.397zm5.777-.485v.004l-.678-.678.678.674zm-1.356-1.347a6.25 6.25 0 0 0 1.832-4.412h1.916a8.15 8.15 0 0 1-2.392 5.759zm1.832-4.412v-.015h1.916v.015"/><path d="M172.382 310.979l1.01.287-.493 1.848-1.064-.302zm1.01.287l1.53.38-.42 1.864-1.603-.395zm1.53.38l1.542.316-.343 1.879-1.619-.331zm1.542.316a39.33 39.33 0 0 0 7.325.643l.008 1.916c-2.565.015-5.137-.214-7.675-.68"/><path d="M183.789 312.605l.962-.049.195 1.901-1.151.064-.008-1.916zm.962-.049h.004l.094.951-.098-.951zm.004 0c.54-.053 1.077-.153 1.602-.291l.486 1.848a12.22 12.22 0 0 1-1.902.343zm1.602-.291c.516-.136 1.026-.316 1.517-.532l.771 1.751a12.1 12.1 0 0 1-1.802.63zm1.517-.532c2.316-1.021 4.226-2.883 5.28-5.289l1.751.763c-1.251 2.858-3.516 5.067-6.26 6.277"/><path d="M224.067 316.341l-62.878-17.838.517-1.842 62.878 17.839m-109.191 32.593h87.55v1.916h-87.55m20.21 17.112h64.916v1.916h-64.916"/><path d="M165.951 359.637l-7.754 7.626-1.34-1.362 7.754-7.627"/><use xlink:href="#B"/><use xlink:href="#C"/><use xlink:href="#B" x="-12.83"/><use xlink:href="#C" x="25.659"/><use xlink:href="#B" x="12.828"/><use xlink:href="#C" x="38.489"/><use xlink:href="#B" x="25.658"/><path d="M201.902 362.132l-5.217 5.131-1.34-1.362 5.217-5.131"/><use xlink:href="#B" x="38.488"/><path d="M165.951 349.916l-7.754 7.626-1.34-1.362 7.754-7.627"/><path d="M151.782 348.553l7.756 7.627-1.34 1.362-7.756-7.626"/><use xlink:href="#C" y="-9.721"/><path d="M138.963 348.542l7.745 7.638-1.34 1.362-7.745-7.637"/><use xlink:href="#C" x="25.659" y="-9.721"/><path d="M164.61 348.553l7.756 7.627-1.34 1.362-7.756-7.626"/><use xlink:href="#C" x="38.489" y="-9.721"/><path d="M177.44 348.553l7.756 7.627-1.34 1.362-7.756-7.626m27.212 1.109l-6.627 6.517-1.34-1.362 6.627-6.517"/><use xlink:href="#B" x="38.488" y="-9.722"/><path d="M133.027 228.956l-8.385.498-.113-1.916 8.385-.497m5.331 88.379l-.027.012-.823-1.729.027-.012.823 1.729zm-.866-1.708l.015-.008.412.864zm.854 1.714a28.27 28.27 0 0 0-4.543 2.835l-1.16-1.519a30.24 30.24 0 0 1 4.85-3.03zm-4.543 2.835a28.23 28.23 0 0 0-3.845 3.556l-1.423-1.28a30.17 30.17 0 0 1 4.108-3.795zm-3.845 3.556c-5.959 6.633-8.593 15.891-6.588 25.005l-1.87.411a30.22 30.22 0 0 1 7.035-26.695m11.293 10.675l-.117.058-.838-1.72.117-.058zm-.963-1.66l.008-.003.419.86zm.854 1.714a16.44 16.44 0 0 0-2.307 1.4l-1.123-1.549a18.34 18.34 0 0 1 2.577-1.565zm-2.307 1.4a16.28 16.28 0 0 0-2.011 1.727l-1.362-1.34a18.08 18.08 0 0 1 2.249-1.935zm-2.011 1.727c-3.16 3.198-4.925 7.637-4.692 12.295l-1.916.089a18.24 18.24 0 0 1 5.246-13.725"/><path d="M117.246 337.859l.47 1.374-1.781.695c-.194-.495-.336-1.683-.489-2.204zm.47 1.374l.584 1.323-1.714.845-.651-1.473zm.584 1.323a16.82 16.82 0 0 0 4.618 5.724l-1.191 1.497a18.74 18.74 0 0 1-5.142-6.376"/><path d="M117.197 338.486l-2.194 5.05-1.751-.763 2.194-5.05m7.732 9.727l-1.699-.884.248 1.211zm-1.699-.884l.671-1.322 1.72.839-.693 1.367zm.671-1.322l.64-1.338 1.736.793-.655 1.384zm.64-1.338a57.72 57.72 0 0 0 2.713-7.105l1.827.56c-.77 2.501-1.707 4.953-2.803 7.337"/><path d="M125.543 337.466l-.04-.665 1.791-.106zm3.156 9.457l1.864-.434.035.201zm0 0l-.336-1.362 1.849-.48.351 1.408zm-.336-1.362l-.375-1.352 1.842-.524.381 1.396zm1.463-1.88l.004.004-.921.262.917-.266zm-1.834.532c-.663-2.289-1.483-4.546-2.45-6.747l1.751-.771a56.2 56.2 0 0 1 2.533 6.986m4.819 37.935v-14.537h1.916v14.537"/><path d="M134.697 367.386l-6.511-19.028 1.812-.615 6.511 19.028"/><path d="M140.292 359.637l-5.086 5.002-1.34-1.362 5.086-5.002m1.351-8.37l-7.586 7.461-1.34-1.362 7.586-7.461"/></svg>