<svg xmlns="http://www.w3.org/2000/svg" xmlns:xlink="http://www.w3.org/1999/xlink" width="1000" height="600" xmlns:v="https://vecta.io/nano"><style><![CDATA[.e{stroke-width:.15}.f{fill:none}.g{stroke-width:.3}.h{fill:#fff}.i{fill:#f1b517}.j{stroke-width:.265}.k{stroke:#000}.l{fill:#d21034}.m{stroke-width:.325}.n{fill:#0a328c}.o{fill:#00209f}.p{stroke-width:.163}.q{stroke-width:.287}.r{stroke-linecap:round}.s{fill:#016a16}.t{stroke-width:.125}.u{stroke-width:.157}.v{stroke-width:.124}]]></style><path d="M0 0h1000v600H0z" class="l"/><path d="M0 0h1000v300H0z" class="o"/><path d="M405.172 222.414h189.656v155.172H405.172z" class="h"/><path d="M499.613 332.116v.084c-4.078.43-47.873 5.227-59.775 14.111-12.48 9.316-34.666 19.076-34.666 19.076v11.978h94.441.775 94.441v-11.978s-22.186-9.76-34.666-19.076c-11.901-8.884-55.697-13.68-59.775-14.111v-.084l-.387.042-.387-.042z" class="s"/><g transform="matrix(.796456 0 0 .775304 100.07211 273.79616)" class="k"><g class="h"><path d="M461.87 110.611c-.658-1.711-6.054-1.579-10.266-.263s-6.58.921-15.661 1.053-14.214 2.237-15.003 2.501-14.477 6.975-19.741 8.686-10.266 0-10.266 0 6.054 5.922 14.609 1.184c0 0-7.107 3.948-11.713 4.475 0 0 6.874 1.441 12.684-1.069a13.95 13.95 0 0 0 1.53-.773c3.637-1.807 6.878-3.209 9.805-4.297 16.652-6.193 23.129-2.249 34.547-5.179" class="m"/><path d="M461.84 110.358c-.781 1.513-5.259.665-8.137 1.602.694.609 2.67 1.68 8.227 2.743.921-3.458-.09-4.345-.09-4.345z" stroke-width=".338"/></g><g class="f"><path d="M417.21 121.789c-5.348 1.807-7.931 3.472-10.858 4.561m10.2-5.562c-4.641 1.649-7.306 3.231-10.154 4.328m9.496-5.329c-3.934 1.49-6.681 2.989-9.449 4.095m8.791-5.096c-3.228 1.331-6.056 2.748-8.745 3.862m8.087-4.864l-8.04 3.63" class="m"/><path d="M423.48 119.14s7.491-2.261 13.285-1.555m-12.437.141s7.031-1.979 13.215-1.449m-12.367.035s6.572-1.696 13.144-1.343m-12.296-.071s6.113-1.413 13.073-1.237m-12.225-.177s5.653-1.131 13.003-1.131" class="q"/><path d="M446.8 112.214l6.778-1.316c2.895-.418 5.804-.595 6.649.185m-14.063 2.333s3.948-.442 7.133-1.234m-7.769 2.435s4.516-.059 7.488-1.152m-8.124 2.353s5.085.324 7.842-1.071m-8.482 2.158s5.659.631 8.206-.883" class="m"/></g><g transform="matrix(1.084377 0 0 1.084377 -32.154559 -11.930329)"><use xlink:href="#A" class="i m"/><use xlink:href="#B" class="e h"/><g class="f"><use xlink:href="#C" class="j"/><use xlink:href="#A" class="m"/></g><g transform="rotate(5.723 529.295 67.882)"><use xlink:href="#A" class="i m"/><use xlink:href="#D" class="e h"/><g class="f"><use xlink:href="#C" class="j"/><use xlink:href="#A" class="m"/></g></g><use xlink:href="#E" class="e h"/><use xlink:href="#F" class="f j"/><use xlink:href="#G" class="e h"/><use xlink:href="#H" class="f m"/><g transform="rotate(4.153 502.686 103.387)"><g transform="rotate(5.723 529.295 67.882)"><use xlink:href="#A" class="i m"/><use xlink:href="#D" class="e h"/><g class="f"><use xlink:href="#C" class="j"/><use xlink:href="#A" class="m"/></g></g><use xlink:href="#E" class="e h"/><use xlink:href="#F" class="f j"/><use xlink:href="#G" class="e h"/><use xlink:href="#H" class="f m"/></g></g></g><path d="M474.281 323.752l1.375 13.245 17.296-1.122z" class="l"/><g transform="matrix(-.863659 0 0 .840722 925.67019 265.05737)"><g class="o"><path d="M561.109 52.433s-1.457 25.124-9.103 37.747l-31.193-4.612.85-15.293 39.446-26.824z"/><use xlink:href="#I" class="j k"/></g><g class="k"><use xlink:href="#J" class="g l"/><use xlink:href="#K" class="e n"/></g></g><path d="M497.639 327.661l-20.616-18.287c-4.601 1.966-4.247 5.541-1.06 10.034l-.097 4.501 16.859 11.441 4.624-1.126.193-4.126zm-.629-11.776l-12.634-15.847-3.196 6.902.998 6.514 15.081 13.805z" class="l"/><g transform="matrix(-.863659 0 0 .840722 925.67019 265.05737)"><g class="o"><use xlink:href="#L"/><use xlink:href="#M" class="j k"/></g><use xlink:href="#N" class="e k l"/><use xlink:href="#O" class="i"/><g class="k"><g class="f"><use xlink:href="#P" class="g"/><use xlink:href="#Q" class="e"/></g><g class="i"><g class="e"><use xlink:href="#R"/><use xlink:href="#S"/></g><use xlink:href="#T" class="t"/><circle cx="551.147" cy="100.305" r="2.391" class="e"/></g></g><use xlink:href="#U" class="l"/></g><path d="M448.384 305.419c-.544-9.136 1.088-19.861 1.088-19.861l.136-1.589 28.155 26.216s-1.908 2.785-1.625 13.901l-2.183-1.455z" class="o"/><g class="k"><g transform="matrix(-.863659 0 0 .840722 925.67019 265.05737)"><path d="M552.633 48.008c.63-10.867-1.26-23.624-1.26-23.624l-.157-1.89" class="f j"/><g class="i"><use xlink:href="#V" class="g"/><g transform="rotate(36.186 196.429 -35.139)"><use xlink:href="#W" class="g"/><use xlink:href="#X" class="e"/></g><g transform="rotate(9.12 474.55 126.571)"><use xlink:href="#V" class="g"/><g transform="rotate(36.186 196.429 -35.139)"><use xlink:href="#W" class="g"/><use xlink:href="#X" class="e"/></g></g><g transform="rotate(18.987 458.577 111.376)"><use xlink:href="#V" class="g"/><g transform="rotate(36.186 196.429 -35.139)"><use xlink:href="#W" class="g"/><use xlink:href="#X" class="e"/></g></g><path d="M534.065 11.472l-37.87 48.098.245.746 38.215-48.382zm16.353 11.757l-54.756 50.793.51.551 54.756-50.795zm8.814 20.339l-58.293 39.898.424.619 58.293-39.898z" class="g"/></g><use xlink:href="#Y" class="j n"/><g class="e"><use xlink:href="#Z" class="l"/><use xlink:href="#AE" class="f"/></g><use xlink:href="#Y" class="f g"/><use xlink:href="#a" class="e n"/><use xlink:href="#b" class="j l"/><g class="f"><use xlink:href="#c" class="g"/><path d="M553.886 36.096s.678-3.052-.882-5.765c-1.571-2.773-2.04-6.993-1.221-6.714" class="e"/></g><use xlink:href="#d" class="i u"/><g class="g"><use xlink:href="#AF" class="i"/><use xlink:href="#e" class="h"/></g></g><g transform="matrix(.89788 .117577 -.120784 .874035 251.91563 243.35866)"><use xlink:href="#f" class="e i"/><use xlink:href="#g" fill="#f4cf0e" stroke-width=".13" class="r"/><use xlink:href="#AG" class="f j"/><g class="e i"><use xlink:href="#h"/><use xlink:href="#h" x="32.942"/><use xlink:href="#i"/></g></g></g><use xlink:href="#j" transform="matrix(.89788 .117577 -.120784 .874035 251.91563 243.35866)"/><use xlink:href="#k" transform="matrix(.89788 .117577 -.120784 .874035 251.91563 243.35866)" class="e i k"/><g transform="matrix(.863659 0 0 .840722 74.978335 265.68033)"><g class="e i k"><use xlink:href="#l"/><circle cx="445.451" cy="86.476" r="2.282"/><use xlink:href="#m"/></g><circle r=".482" cy="73.138" cx="445.451"/><circle cx="445.451" cy="99.458" r=".482"/><g transform="rotate(45 445.451 86.298)"><circle cx="445.451" cy="73.138" r=".482"/><circle r=".482" cy="99.458" cx="445.451"/></g><g transform="matrix(-.707107 .707107 .707107 .707107 699.4111 -289.70556)"><circle r=".482" cy="73.138" cx="445.451"/><circle cx="445.451" cy="99.458" r=".482"/></g><g transform="matrix(0 1 1 0 359.15336 -359.15336)"><circle cx="445.451" cy="73.138" r=".482"/><circle r=".482" cy="99.458" cx="445.451"/></g><g transform="matrix(.375665 .926756 .926756 -.375665 198.13393 -294.10752)"><circle r=".482" cy="73.138" cx="445.451"/><circle cx="445.451" cy="99.458" r=".482"/></g><g transform="rotate(113.391 445.451 86.298)"><circle cx="445.451" cy="73.138" r=".482"/><circle r=".482" cy="99.458" cx="445.451"/></g><g transform="rotate(23.078 445.451 86.298)"><circle r=".482" cy="73.138" cx="445.451"/><circle cx="445.451" cy="99.458" r=".482"/></g><g transform="matrix(-.919973 .391981 .391981 .919973 821.42755 -167.70223)"><circle cx="445.451" cy="73.138" r=".482"/><circle r=".482" cy="99.458" cx="445.451"/></g></g><ellipse cy="349.386" cx="-444.644" transform="scale(-1 1)" rx="2.065" ry="2.01" class="e i k"/><g transform="matrix(.863659 0 0 .840722 75.483255 265.05737)"><use xlink:href="#n" class="e h k"/><use xlink:href="#o"/><g class="e h k"><use xlink:href="#AH"/><use xlink:href="#AI"/></g></g><g transform="matrix(-.863659 0 0 .840722 925.67019 265.05737)"><g class="k"><g transform="matrix(-1 0 0 1 984.5452 0)" class="e"><ellipse cx="472.443" cy="104.751" rx="3.569" ry="1.681" class="h"/><g class="i"><use xlink:href="#p"/><use xlink:href="#q" class="f"/></g><use xlink:href="#AJ" class="f"/></g><g class="h"><use xlink:href="#r" class="j"/><path transform="matrix(.987361 -.158488 .218555 .975825 0 0)" d="M491.59 178.412h.597v2.147h-.597z" class="e"/><g class="g"><use xlink:href="#AK"/><use xlink:href="#AL"/></g></g></g><use xlink:href="#s"/><g class="k"><use xlink:href="#t" class="g h"/><g class="e i"><circle r="2.391" cy="109.883" cx="523.951"/><circle cx="529.652" cy="105.094" r="2.391"/><circle r="2.391" cy="105.664" cx="538.432"/><circle cx="545.104" cy="109.313" r="2.391"/><circle r="2.391" cy="109.313" cx="550.919"/><circle cx="556.735" cy="109.313" r="2.391"/><circle r="2.391" cy="109.313" cx="562.55"/><circle cx="548.069" cy="104.866" r="2.391"/><circle r="2.391" cy="104.866" cx="553.884"/><circle cx="559.699" cy="104.866" r="2.391"/></g><use xlink:href="#u" class="g l"/><g class="e"><use xlink:href="#v" class="n"/><use xlink:href="#AM" class="f"/><g class="h"><use xlink:href="#w"/><use xlink:href="#x"/></g></g></g><use xlink:href="#y" class="i"/><use xlink:href="#z"/><use xlink:href="#AA"/><g class="k"><use xlink:href="#AB" class="g n"/><g class="e"><use xlink:href="#AC" class="l"/><use xlink:href="#AN" class="f"/></g><g class="f"><use xlink:href="#AB" class="g"/><path d="M561.609 43.805s.463 1.966.578 6.071-.752 6.881-1.099 6.823" class="e"/><use xlink:href="#AD" class="j"/><path d="M537.903 24.955s1.388 5.724 1.561 8.384" class="g"/><path d="M527.158 13.193s1.413-1.925 5.589-.246" class="e"/></g></g></g><g transform="matrix(.796456 0 0 .775304 100.07211 273.79616)" class="k"><path d="M499.143-5.188l.824-27.052 3.845-2.06 1.099 29.112z" class="q s"/><path d="M500.72-56.993s-.371 0-.99-.619-.99-.619-.495-1.485 1.114-1.981 3.219-1.857 3.714.248 4.456 2.476.99 8.17.371 10.646c-3.219-.124-8.046-2.723-8.789-4.456s2.228-4.704 2.228-4.704z" class="m n"/><g transform="matrix(-1.084377 0 0 1.084377 1036.2249 -11.930329)"><use xlink:href="#A" class="i m"/><use xlink:href="#B" class="e h"/><g class="f"><use xlink:href="#C" class="j"/><use xlink:href="#A" class="m"/></g><g transform="rotate(5.723 529.295 67.882)"><use xlink:href="#A" class="i m"/><use xlink:href="#D" class="e h"/><g class="f"><use xlink:href="#C" class="j"/><use xlink:href="#A" class="m"/></g></g><use xlink:href="#E" class="e h"/><use xlink:href="#F" class="f j"/><use xlink:href="#G" class="e h"/><use xlink:href="#H" class="f m"/><g transform="rotate(4.153 502.686 103.387)"><g transform="rotate(5.723 529.295 67.882)"><use xlink:href="#A" class="i m"/><use xlink:href="#D" class="e h"/><g class="f"><use xlink:href="#C" class="j"/><use xlink:href="#A" class="m"/></g></g><use xlink:href="#E" class="e h"/><use xlink:href="#F" class="f j"/><use xlink:href="#G" class="e h"/><use xlink:href="#H" class="f m"/></g></g><g class="f q"><path d="M505.052-56.079s-2.6.495-2.476 1.733" class="r"/><path d="M503.815-58.85s-2.971.743-3.961 3.342"/><path d="M502.453-58.479s-1.733 1.485-2.476.99"/></g><g class="q"><path d="M499.532-54.898l-.174.01-.344.097c-.495.847-.832 1.781-.523 2.502.053.124.128.252.221.383l.274-.135s5.694-.495 8.17 3.837l.148.259c.236-1.02.336-2.565.324-4.197-3.944-2.715-7.309-2.783-8.097-2.756z" class="l"/><path d="M506.167-54.718s-1.362.619-1.362 1.238" class="f r"/></g></g><path d="M524.658 324.138l-.314 12.857-17.296-1.122z" class="l"/><path d="M558.935 309.139s-1.258 21.122-7.862 31.735l-26.94-3.877.734-12.857 34.068-22.552z" class="o"/><g transform="matrix(.863659 0 0 .840722 74.328776 265.05737)" class="k"><use xlink:href="#I" class="j n"/><use xlink:href="#J" class="g l"/><use xlink:href="#K" class="e n"/></g><path d="M502.36 327.661l20.616-18.287 3.049 6.875-1.893 7.661-16.859 11.441-4.624-1.126-.193-4.126zm.629-11.776l12.634-15.847 3.196 6.902-.998 6.514-15.081 13.805z" class="l"/><g transform="matrix(.863659 0 0 .840722 74.328776 265.05737)"><use xlink:href="#L" class="o"/><g class="k"><use xlink:href="#M" class="j n"/><use xlink:href="#N" class="e l"/></g><use xlink:href="#O" class="i"/><g class="k"><g class="f"><use xlink:href="#P" class="g"/><use xlink:href="#Q" class="e"/></g><g class="i"><g class="e"><use xlink:href="#R"/><use xlink:href="#S"/></g><use xlink:href="#T" class="t"/><circle r="2.391" cy="100.305" cx="551.147" class="e"/></g></g><use xlink:href="#U" class="l"/></g><path d="M551.615 305.419c.544-9.136-1.088-19.861-1.088-19.861l-.136-1.589-28.155 26.216s2.04-2.119 1.36 8.738l2.448 3.708z" class="o"/><g class="k"><path d="M551.615 305.419c.544-9.136-1.088-19.861-1.088-19.861l-.136-1.589" class="f j"/><g transform="matrix(.863659 0 0 .840722 74.328776 265.05737)"><g class="i"><use xlink:href="#V" class="g"/><g transform="rotate(36.186 196.429 -35.139)"><use xlink:href="#W" class="g"/><use xlink:href="#X" class="e"/></g><g transform="rotate(9.12 474.55 126.571)"><use xlink:href="#V" class="g"/><g transform="rotate(36.186 196.429 -35.139)"><use xlink:href="#W" class="g"/><use xlink:href="#X" class="e"/></g></g><g transform="rotate(18.987 458.577 111.376)"><use xlink:href="#V" class="g"/><g transform="rotate(36.186 196.429 -35.139)"><use xlink:href="#W" class="g"/><use xlink:href="#X" class="e"/></g></g><path d="M534.065 11.472l-37.87 48.098.197.833 38.263-48.469zm16.353 11.757l-54.756 50.793.51.551 54.756-50.795zm8.814 20.339l-58.293 39.898.424.619 58.293-39.898z" class="g"/></g><use xlink:href="#Y" class="j n"/><g class="e"><use xlink:href="#Z" class="l"/><use xlink:href="#AE" class="f"/></g><use xlink:href="#Y" class="f g"/><use xlink:href="#a" class="e n"/><use xlink:href="#b" class="j l"/><use xlink:href="#c" class="f g"/></g><path d="M552.697 295.404s.586-2.566-.762-4.847c-1.357-2.331-1.762-5.879-1.055-5.645" class="e f"/><g transform="matrix(.863659 0 0 .840722 74.328776 265.05737)"><use xlink:href="#d" class="i u"/><g class="g"><use xlink:href="#AF" class="i"/><use xlink:href="#e" class="h"/></g></g><g transform="matrix(-.89788 .117577 .120784 .874035 748.08333 243.35866)"><use xlink:href="#f" class="e i"/><use xlink:href="#g" fill="#f4cf0e" stroke-width=".13" class="r"/><use xlink:href="#AG" class="f j"/><g class="e i"><use xlink:href="#h"/><use xlink:href="#h" x="32.942"/><use xlink:href="#i"/></g></g></g><use xlink:href="#j" transform="matrix(-.89788 .117577 .120784 .874035 748.08333 243.35866)"/><g class="i k e"><use xlink:href="#k" transform="matrix(-.89788 .117577 .120784 .874035 748.08333 243.35866)"/><g transform="matrix(-.863659 0 0 .840722 925.0206 265.68033)"><use xlink:href="#l"/><circle r="2.282" cy="86.476" cx="445.451"/><use xlink:href="#m"/></g></g><g transform="scale(-1 1)"><ellipse cx="-540.303" cy="327.169" rx=".416" ry=".405"/><ellipse cy="349.297" cx="-540.303" rx=".416" ry=".405"/></g><g transform="matrix(-.610699 .59448 .610699 .59448 759.63735 22.11874)"><circle r=".482" cy="73.138" cx="445.451"/><circle cx="445.451" cy="99.458" r=".482"/></g><g transform="matrix(.610699 .59448 -.610699 .59448 320.96821 22.118539)"><circle cx="445.451" cy="73.138" r=".482"/><circle r=".482" cy="99.458" cx="445.451"/></g><g transform="matrix(0 .840722 -.863659 0 614.83473 -36.267745)"><circle r=".482" cy="73.138" cx="445.451"/><circle cx="445.451" cy="99.458" r=".482"/></g><g transform="matrix(-.324446 .779144 -.800401 -.31583 753.90053 18.417718)"><circle cx="445.451" cy="73.138" r=".482"/><circle r=".482" cy="99.458" cx="445.451"/></g><g transform="matrix(.342876 .771629 .792681 -.33377 319.16198 23.313786)"><circle r=".482" cy="73.138" cx="445.451"/><circle cx="445.451" cy="99.458" r=".482"/></g><g transform="matrix(-.794542 .329549 .33854 .773441 865.0171 124.68844)"><circle cx="445.451" cy="73.138" r=".482"/><circle r=".482" cy="99.458" cx="445.451"/></g><g transform="matrix(.794543 .329547 -.338538 .773441 215.58766 124.6894)"><circle r=".482" cy="73.138" cx="445.451"/><circle cx="445.451" cy="99.458" r=".482"/></g><g class="e k"><ellipse cx="555.355" cy="349.386" rx="2.065" ry="2.01" class="i"/><use xlink:href="#n" transform="matrix(-.863659 0 0 .840722 924.51573 265.05737)" class="h"/></g><use xlink:href="#o" transform="matrix(-.863659 0 0 .840722 924.51573 265.05737)"/><g class="k"><g transform="matrix(-.863659 0 0 .840722 924.51573 265.05737)" class="e h"><use xlink:href="#AH"/><use xlink:href="#AI"/></g><g transform="matrix(-.863659 0 0 .840722 924.63966 265.05737)" class="e"><ellipse ry="1.681" rx="3.569" cy="104.751" cx="472.443" class="h"/><g class="i"><use xlink:href="#p"/><use xlink:href="#q" class="f"/></g><use xlink:href="#AJ" class="f"/></g><g transform="matrix(.863659 0 0 .840722 74.328776 265.05737)" class="h"><use xlink:href="#r" class="j"/><path transform="matrix(.987361 -.158488 .218555 .975825 0 0)" d="M491.59 178.412h.597v2.147h-.597z" class="e"/><g class="g"><use xlink:href="#AK"/><use xlink:href="#AL"/></g></g></g><use xlink:href="#s" transform="matrix(.863659 0 0 .840722 74.328776 265.05737)"/><g class="k"><use xlink:href="#t" transform="matrix(.863659 0 0 .840722 74.328776 265.05737)" class="g h"/><g transform="matrix(.863659 0 0 .840722 74.328776 265.05737)" class="e i"><circle cx="523.951" cy="109.883" r="2.391"/><circle r="2.391" cy="105.094" cx="529.652"/><circle cx="538.432" cy="105.664" r="2.391"/><circle r="2.391" cy="109.313" cx="545.104"/><circle cx="550.919" cy="109.313" r="2.391"/><circle r="2.391" cy="109.313" cx="556.735"/><circle cx="562.55" cy="109.313" r="2.391"/><circle r="2.391" cy="104.866" cx="548.069"/><circle cx="553.884" cy="104.866" r="2.391"/><circle r="2.391" cy="104.866" cx="559.699"/></g><use xlink:href="#u" transform="matrix(.863659 0 0 .840722 74.328776 265.05737)" class="g l"/><g transform="matrix(.863659 0 0 .840722 74.328776 265.05737)" class="e"><use xlink:href="#v" class="n"/><use xlink:href="#AM" class="f"/><g class="h"><use xlink:href="#w"/><use xlink:href="#x"/></g></g></g><use xlink:href="#y" transform="matrix(.863659 0 0 .840722 74.328776 265.05737)" class="i"/><use xlink:href="#z" transform="matrix(.863659 0 0 .840722 74.328776 265.05737)"/><use xlink:href="#AA" transform="matrix(.863659 0 0 .840722 74.328776 265.05737)"/><g class="k"><use xlink:href="#AB" transform="matrix(.863659 0 0 .840722 74.328776 265.05737)" class="g n"/><g transform="matrix(.863659 0 0 .840722 74.328776 265.05737)" class="e"><use xlink:href="#AC" class="l"/><use xlink:href="#AN" class="f"/></g><g class="f"><use xlink:href="#AB" transform="matrix(.863659 0 0 .840722 74.328776 265.05737)" class="g"/><path d="M559.367 301.885s.4 1.653.499 5.104-.649 5.785-.949 5.736" class="e"/><use xlink:href="#AD" transform="matrix(.863659 0 0 .840722 74.328776 265.05737)" class="j"/><path d="M538.893 286.038s1.199 4.812 1.348 7.049" class="g"/></g><g transform="matrix(.863659 0 0 .840722 74.328776 265.05737)" class="v"><path d="M522.28 69.162s1.577-1.702 1.677-2.428.075-1.928-.901-1.953-5.608-.801-7.009.325-1.652 1.702-1.377 2.278 1.427 1.502 2.378 1.452 1.878.376 2.253.15 2.003-2.153 2.428-.426l.05.576z" class="l"/><path d="M517.808 75.635s.949-4.535 2.531-6.539c0 0 2.004-.527 2.742 0s-.105-.633.738.422.844 5.063.844 5.063l1.055.949c-2.742 1.266-7.911.105-7.911.105z" fill="#f1b617"/><path d="M525.506 75.404c-2.531 1.371-7.7.316-7.7.316s-.844 2.004 0 1.688.422.738 1.266 0 .844-.949.844-.949 4.852 0 5.801-.316z"/><path d="M520.877 69.751a5.41 5.41 0 0 0 .772.131m-.794.437s.336.085.769.121m-.791.447a5.04 5.04 0 0 0 .766.11m-.788.458s.323.075.764.1m-.786.469a4.79 4.79 0 0 0 .761.089m-.783.479s.31.066.759.078m-.781.49s.303.061.756.068m-.778.5a4.59 4.59 0 0 0 .753.058m-.775.511s.29.051.751.047m-.773.521s.284.046.748.036m-.77.532s.277.041.745.026m1.045-5.471c.324-.05.617-.171.787-.415m-.831.961c.363-.058.715-.193.963-.462m-1.007 1.009c.402-.066.813-.214 1.139-.509m-1.183 1.056c.442-.074.911-.236 1.314-.556m-1.358 1.103c.481-.082 1.008-.258 1.49-.604m-1.534 1.15a4.33 4.33 0 0 0 1.666-.651m-1.71 1.198a5.15 5.15 0 0 0 1.841-.698m-1.885 1.245a6.03 6.03 0 0 0 2.017-.745m-2.061 1.292a6.92 6.92 0 0 0 2.192-.793m-2.236 1.339c.678-.122 1.497-.366 2.368-.84m-2.412 1.387c.717-.13 1.595-.388 2.544-.887" class="f"/><g fill="#d20014"><path d="M520.552 67.359l-1.677 1.602m.596-1.637l-1.106 1.582m.025-1.617l-.536 1.562m-.546-1.597l.035 1.542m-1.117-1.577l.606 1.522m-1.687-1.557l1.177 1.502"/><path d="M515.771 67.309l.726 1.427"/></g></g><path d="M529.613 276.149s1.22-1.618 4.827-.207" class="e f"/><path d="M502.309 269.675s1.468 46.23.267 63.598m-.267-63.598c-1.743-.255-4.662 0-4.662 0s-1.468 46.23-.267 63.598c0 0 3.187-.383 5.195 0" stroke-width=".258" class="i"/></g><path d="M499.835 271.808l-.936.01-1.318.039-.006.222 4.804-.008-.006-.223-2.538-.041zm-.025 1.619l-.933.009-1.34.036-.006.223 4.893-.002-.006-.223-2.608-.043zm-.026 1.62l-.929.008-1.362.033-.006.223 4.981.004-.006-.223zm-.026 1.62l-.926.006-1.384.029-.006.223 5.07.01-.006-.223zm-.949 1.625l-1.402.026-.005.223 5.148.015-.006-.223zm-.022 1.617l-1.418.022-.006.223 5.225.02-.005-.223zm-.023 1.619l-1.433.018-.006.223 5.301.026-.006-.223-3.857-.044zm-.024 1.619l-1.448.015-.005.221 5.378.031-.006-.222zm-.022 1.617l-1.464.01-.005.223 5.454.036-.005-.224-3.98-.046zm-.022 1.62l-1.476.006-.005.222 5.521.041-.005-.222zm-.024 1.618a177.4 177.4 0 0 0-1.485.002l-.005.223 5.587.046-.005-.223-4.093-.048zm-.022 1.619c-.625-.003-1.005 0-1.496.001l-.005.222 5.652.047-.005-.222zm-1.525 1.615l-.004.222 5.708.051-.004-.222-5.701-.051zm-.028 1.613l-.004.223 5.765.055-.004-.222zm-.028 1.612l-.004.223 5.82.061-.004-.223-5.813-.06zm-.024 1.611l-.003.223 5.867.066-.003-.223zm-.023 1.615l-.003.222 5.913.069-.003-.223zm-.023 1.612l-.003.223 5.958.071-.003-.222zm-.02 1.618l-.002.222 5.996.07-.002-.222c-2.429.005-4.538-.031-5.991-.07zm-.016 1.613l-.002.223 6.028.07-.002-.222a164.635 160.263 0 0 1-6.023-.07zm-.016 1.614l-.002.222 6.06.071-.002-.222a140.83 140.83 0 0 1-6.055-.071zm-.015 1.614v.223l6.087.075v-.224c-2.491.033-4.623-.017-6.085-.074zm-.008 1.613v.223l6.103.077v-.224a103.32 103.32 0 0 1-6.102-.075zm-.008 1.615v.223l6.12.076-.002-.222c-2.515.053-4.654-.007-6.118-.077zm-.008 1.614l-.002.223 6.136.075v-.223c-2.527.063-4.67-.001-6.134-.076zm0 1.615v.223l6.133.074v-.223a71.697 69.793 0 0 1-6.134-.075zm.002 1.615v.223l6.13.074v-.223c-2.534.084-4.669.013-6.13-.074zm.002 1.614v.223a61.68 61.68 0 0 0 6.126.073v-.223c-2.538.094-4.666.02-6.126-.073zm.01 1.617l.002.223c1.461.098 3.578.173 6.102.07l.002-.223c-2.53.104-4.651.028-6.106-.07zm.014 1.617l.002.223c1.457.103 3.561.18 6.074.067l.002-.222c-2.519.113-4.627.036-6.078-.068zm.014 1.617l.002.223a48.361 47.076 0 0 0 6.045.064l.002-.223c-2.51.123-4.603.043-6.049-.064zm.022 1.618l.004.222c1.446.112 3.516.192 5.999.061l.004-.223c-2.492.133-4.566.052-6.006-.06zm.028 1.617l.005.224c1.438.116 3.484.195 5.941.057l.005-.223c-2.467.141-4.518.059-5.95-.057zm.036 1.62l.005.223a41.4 41.4 0 0 0 5.869.052l.005-.222c-2.436.148-4.457.067-5.879-.053zm.045 1.621l.006.222c1.414.121 3.396.198 5.777.046l.006-.222c-2.393.154-4.38.075-5.789-.047zm.053 1.622l.009.223c1.399.122 3.339.195 5.665.039l.008-.222a36.8 36.8 0 0 1-5.682-.041zm.065 1.623l.011.224c1.378.122 3.27.191 5.531.034l.011-.225c-2.279.16-4.178.089-5.553-.033zm.08 1.626l.014.224a33.053 32.175 0 0 0 5.367.025l.014-.224c-2.201.16-4.044.095-5.394-.025z"/><g transform="matrix(.796456 0 0 .775304 100.07211 273.79616)" class="k"><path d="M503.626 73.597l1.363.127m-1.358-2.202l1.386.121m-1.381-2.196l1.409.115m-1.404-2.19l1.432.109m-1.427-2.184l1.455.104m-1.45-2.178l1.478.098m-1.473-2.173l1.501.092m-1.496-2.167l1.524.086m-1.519-2.161l1.547.08m-1.542-2.155l1.57.075m-1.565-2.149l1.593.069m-1.588-2.143l1.616.063m-1.611-2.138l1.639.057m-1.634-2.132l1.662.051m-1.657-2.126l1.685.045m-1.68-2.12l1.708.04m-1.703-2.114l1.731.034m-1.726-2.109l1.754.028m-1.798-2.103l1.777.022m-1.823-2.097l1.8.016m-1.846-2.091l1.823.011m-1.869-2.085l1.846.005m-1.893-2.079l1.869-.001m-1.916-2.073l1.892-.007m-1.939-2.068l1.916-.013m-1.962-2.062l1.939-.019m-1.985-2.056l1.962-.024m-2.008-2.05l1.985-.03m-2.031-2.044l2.008-.036m-2.054-2.039l2.031-.042m-2.077-2.033l2.054-.048m-2.1-2.027l2.077-.053m-2.123-2.021l2.1-.059m-2.146-2.015l2.123-.065m-2.169-2.01l2.146-.071m-2.19-2.003l2.169-.077m-2.215-1.998l2.192-.082m-2.238-1.992l2.215-.088m-5.842 76.965l1.363.127m-1.405-2.208l1.386.121m-1.428-2.202l1.409.115m-1.451-2.196l1.432.109m-1.474-2.19l1.455.104m-1.497-2.185l1.478.098m-1.52-2.179l1.501.092m-1.543-2.173l1.524.086m-1.566-2.167l1.547.08m-1.589-2.161l1.57.075m-1.612-2.156l1.593.069m-1.635-2.15l1.616.063m-1.658-2.144l1.639.057m-1.682-2.138l1.662.051m-1.705-2.132l1.685.045m-1.728-2.127l1.708.04m-1.716-2.121l1.731.034m-1.696-2.115l1.754.028m-1.719-2.109l1.777.022m-1.742-2.103l1.8.016m-1.765-2.097l1.823.011m-1.788-2.091l1.846.005m-1.811-2.086l1.869-.001m-1.834-2.08l1.892-.007m-1.857-2.074l1.916-.013m-1.88-2.068l1.939-.019m-1.903-2.062l1.962-.024m-1.926-2.056l1.985-.03m-1.949-2.051l2.008-.036m-1.972-2.045l2.031-.042m-1.995-2.039l2.054-.048m-2.018-2.033l2.077-.053m-2.041-2.027l2.1-.059m-2.064-2.022l2.123-.065m-2.087-2.016l2.146-.071M499.2.879l2.169-.077M499.234-1.2l2.192-.082M499.27-3.28l2.215-.088" stroke-width=".656" class="f"/><path d="M453.628 111.746l-1.793 7.92c11.97 5.557 45.723 5.812 48.864 5.824v.004l.303-.002.295.002v-.004c3.149-.011 37.924-.259 49.91-5.824l-1.793-7.92s-1.494 5.081-48.416 5.977c-46.921-.897-47.37-5.977-47.37-5.977z" class="h m"/><g transform="matrix(-1.084377 0 0 1.084377 1035.1984 -11.271433)"><g class="g"><path d="M455.739 112.399c-.607-1.578-5.583-1.456-9.467-.243s-6.068.85-14.443.971-13.108 2.063-13.836 2.306-13.351 6.433-18.205 8.01-9.467 0-9.467 0 5.583 5.462 13.472 1.092c0 0-6.554 3.641-10.802 4.127 0 0 6.339 1.329 11.697-.986.48-.207.952-.444 1.411-.713 3.354-1.667 6.343-2.959 9.042-3.963 15.357-5.712 21.329-2.074 31.859-4.776" class="h"/><path d="M414.554 122.707c-4.932 1.667-7.314 3.202-10.013 4.206m9.406-5.129c-4.28 1.52-6.738 2.979-9.363 3.991m8.757-4.915c-3.628 1.374-6.161 2.757-8.714 3.776m8.107-4.7c-2.976 1.228-5.585 2.534-8.064 3.562m7.458-4.485l-7.415 3.347" class="f"/></g><g class="f"><path d="M420.336 120.264s6.908-2.085 12.252-1.434m-11.47.13s6.484-1.825 12.186-1.336m-11.404.033s6.061-1.564 12.121-1.238m-11.339-.065s5.637-1.303 12.056-1.14m-11.274-.163s5.213-1.043 11.991-1.043" class="j"/><path d="M441.841 113.877l6.25-1.213c2.67-.386 5.352-.549 6.132.17m-12.968 2.151s3.641-.407 6.578-1.138m-7.165 2.246s4.165-.054 6.905-1.063m-7.491 2.171s4.689.299 7.232-.988m-7.823 1.99s5.219.582 7.568-.815" class="g"/></g><path d="M455.711 112.166c-.72 1.395-4.85.613-7.504 1.477.64.562 2.462 1.55 7.587 2.53.849-3.189-.083-4.007-.083-4.007z" stroke-width=".312" class="h"/></g><path d="M492.513 81.011h19.184v17.914h-19.184z" class="i p"/><g class="p r"><path d="M501.995 98.215c1.258 0 2.476-.063 3.601-.179m-3.601-.781c1.258 0 2.476-.063 3.601-.179m-3.601-.781c1.258 0 2.476-.063 3.601-.179m-3.601-.781c1.258 0 2.476-.063 3.601-.179m-3.601-.781c1.258 0 2.476-.063 3.601-.179m-3.601-.781c1.258 0 2.476-.063 3.601-.179m-3.601-.781c1.258 0 2.476-.063 3.601-.179m-3.601-.781c1.258 0 2.476-.063 3.601-.179m-3.601-.781c1.258 0 2.476-.063 3.601-.179m-3.601-.781c1.258 0 2.476-.063 3.601-.179m-3.601-.781c1.258 0 2.476-.063 3.601-.179m-3.601-.781c1.258 0 2.476-.063 3.601-.179m-3.601-.781c1.258 0 2.476-.063 3.601-.179m-3.601-.781c1.258 0 2.476-.063 3.601-.179m-3.601-.781c1.258 0 2.476-.063 3.601-.179" fill="#d20014"/><path d="M511.57 96.544c-.732.416-1.744.779-2.957 1.065m2.957-2.035c-.732.416-1.744.779-2.957 1.065m2.957-2.035c-.732.416-1.744.779-2.957 1.065m2.957-2.035c-.732.416-1.744.779-2.957 1.065m2.957-2.035c-.732.416-1.744.779-2.957 1.065m2.957-2.035c-.732.416-1.744.779-2.957 1.065m2.957-2.035c-.732.416-1.744.779-2.957 1.065m2.957-2.035c-.732.416-1.744.779-2.957 1.065m2.957-2.035c-.732.416-1.744.779-2.957 1.065m2.957-2.035c-.732.416-1.744.779-2.957 1.065m2.957-2.035c-.732.416-1.744.779-2.957 1.065m2.957-2.035c-.732.416-1.744.779-2.957 1.065m2.957-2.035c-.732.416-1.744.779-2.957 1.065m2.957-2.035c-.732.416-1.744.779-2.957 1.065m2.957-2.035c-.732.416-1.744.779-2.957 1.065" class="h"/><path d="M497.584 84.5c-1.807-.246-3.353-.638-4.474-1.126m4.474 2.092c-1.807-.246-3.353-.638-4.474-1.126m4.474 2.092c-1.807-.246-3.353-.638-4.474-1.126m4.474 2.093c-1.807-.246-3.353-.638-4.474-1.126m4.474 2.092c-1.807-.246-3.353-.638-4.474-1.126m4.474 2.093c-1.807-.246-3.353-.638-4.474-1.126m4.474 2.092c-1.807-.246-3.353-.638-4.474-1.126m4.474 2.092c-1.807-.246-3.353-.638-4.474-1.126m4.474 2.092c-1.807-.246-3.353-.638-4.474-1.126m4.474 2.093c-1.807-.246-3.353-.638-4.474-1.126m4.474 2.092c-1.807-.246-3.353-.638-4.474-1.126m4.474 2.092c-1.807-.246-3.353-.638-4.474-1.126m4.474 2.092c-1.807-.246-3.353-.638-4.474-1.126m4.474 2.093c-1.807-.246-3.353-.638-4.474-1.126m4.474 2.092c-1.807-.246-3.353-.638-4.474-1.126" opacity=".98" class="f"/></g><path d="M501.995 75.683c-2.609 0-5.11.27-6.955.751s-2.881 1.132-2.881 1.812c.005.145.057.29.156.433v2.453c-.099.143-.151.288-.156.433.001.151.053.302.156.451v.469h.502c1.461.989 5.109 1.642 9.178 1.642s7.709-.654 9.168-1.642h.607v-.646a.72.72 0 0 0 .06-.274.73.73 0 0 0-.06-.242v-2.835a.73.73 0 0 0 .06-.242c0-.68-1.036-1.331-2.881-1.812s-4.346-.751-6.955-.751zm0 1.733l.612.008.498.01.437.017.535.025.45.03.483.036.49.047.419.043.496.063.382.051.492.079.336.057.415.082.267.053h-.015c1.337.291 2.354.668 2.948 1.095-1.4 1.017-5.098 1.696-9.244 1.697s-7.841-.679-9.244-1.695c1.166-.847 3.951-1.472 7.336-1.647l.972-.038.936-.012z" class="l p"/><g class="h p"><path d="M501.995 77.416c-4.147.001-7.844.68-9.244 1.697 1.404 1.016 5.1 1.693 9.244 1.695s7.844-.68 9.244-1.697c-1.404-1.016-5.1-1.693-9.244-1.695z"/><path d="M501.781 75.686l-.789.011v1.735l.789-.015zm5.389.383v1.736l.789.142V76.21l-.789-.142zm-10.91.098l-.788.165v1.733l.788-.164zm11.961 4.058l-.92.173v3.32l.92-.173zm-9.07.47v3.322l.92.061v-3.322z"/></g><g class="l p"><path d="M511.771 97.18c-.364.222-.855.431-1.457.62-1.794.747-4.935 1.202-8.318 1.204-3.367-.001-6.498-.451-8.298-1.192-.561-.176-1.025-.369-1.381-.574v2.091c-.099.143-.151.288-.156.433.001.151.053.302.156.451v.47h.502c1.462.989 5.11 1.642 9.178 1.642s7.708-.654 9.168-1.642h.607v-.646a.72.72 0 0 0 .059-.274.73.73 0 0 0-.059-.242z"/><path d="M492.513 82.722v2.872l3.521 12.879.825.147z"/><path d="M499.186 84.019l-3.108 14.462.746.133 3.128-14.544-.767-.052zm8.759-.419l-.82.146-3.807 15.231.79-.035z"/><path d="M499.175 84.019l3.886 14.969.777-.033-3.863-14.882-.799-.054zm8.983-.462l-.748.143 3.808 13.471.478-.136v-.958z"/></g><path d="M511.76 97.186a5.6 5.6 0 0 1-.859.406v3.243l.262-.154h.597zm-15.821 1.268v3.322l.859.157v-3.322zm7.989.497l-.859.036v3.319l.859-.034z" class="h p"/><path transform="matrix(1.084377 0 0 1.084377 -32.483702 -11.271433)" d="M494.003 4.616h1.562m-1.601-.893h1.562m-1.601-.893h1.562m-1.601-.893h1.562m-1.601-.893h1.562m-1.601-.893h1.562m-1.601-.893h1.562m-1.601-.893h1.562m-1.601-.893h1.562m-1.601-.893h1.562m-1.601-.893h1.562m-1.601-.893h1.562m-1.601-.893h1.562m-1.601-.893h1.562m-1.601-.893h1.562m-1.601-.893h1.562m-1.601-.893h1.562m-1.601-.893h1.562m-1.601-.893h1.562m-1.601-.893h1.562m-1.601-.893h1.562m-1.601-.893h1.562m-1.601-.893h1.562m-1.601-.893h1.562" class="f g"/><g class="s"><path d="M499.073-36.57c-16.031-2.119-21.099-.553-21.836-.276s-11.056 3.133-15.11 9.95-.921 9.398-.921 9.398c-.737-1.566 1.935-7.371 1.935-7.371-1.29 2.395.369 6.449.369 6.449-.553-1.198.645-4.791.645-4.791l.921 2.856c0-1.658.829-5.62.829-5.62.092 5.159 1.106 6.081 1.106 6.081-.921-1.29.645-9.213.645-9.213-.921 4.699.553 5.712.553 5.712 0-5.528 2.672-8.384 2.672-8.384-2.856 3.225-.829 7.923-.829 7.923.276-5.436 4.422-9.766 4.422-9.766-3.87 4.146-1.566 6.91-1.566 6.91.092-3.501 6.081-8.568 6.081-8.568-2.58 2.488-2.488 5.528-2.488 5.528 1.013-1.935 4.883-5.712 4.883-5.712-.921 1.29-1.751 4.699-1.751 4.699l1.198-.737 3.317-4.054-2.027 3.133 2.027-.921 2.303-2.119-1.013 1.382 1.658-.461 1.658-1.935-1.013 1.382h2.395l1.013-1.013-.461 1.106 1.751.092.553-1.013-.092 1.013h.829l.737-1.474-.276 1.474s1.935 0 2.303.461-11.793 3.777-11.793 3.777 2.672 0 2.856.737-6.081 1.751-6.081 1.751l3.04 1.29-6.081.829 4.422.553-7.647 1.843h7.002l-7.371 1.474 4.699.645-6.173.921 5.897.553-6.357 2.672 3.409-.553c-6.726 6.449-4.33 11.056-4.33 11.056.461-2.027 3.501-6.726 3.501-6.726-.737 5.989.921 8.108.921 8.108.184-1.658 2.303-10.135 2.303-10.135.369 1.935.553 7.463.553 7.463 1.566-1.29.921-7.739.921-7.739l2.488 2.395c-1.198-2.027-.921-6.726-.921-6.726.737.829 1.658 4.054 1.658 4.054l.829-6.173c0 1.935 1.474 5.712 1.474 5.712l.553-6.449c.092 1.566 1.843 4.699 1.843 4.699v-7.002l1.198 3.133.184-4.883.553 5.712 1.013-1.198-.829-.092.369-.184 1.013-5.62 1.566 2.58.553-1.658-.369-2.672c.553.184 1.382 1.843 1.382 1.843v-3.409l1.474.645 2.211-3.225-1.382 2.58 2.119-1.29-2.488 1.935 1.566.645-3.501.369v.921l3.133.276c-4.422.737-4.515 2.027-4.515 2.027l4.238-.184c-3.317-.092-5.712 2.303-5.712 2.303l5.067-.184c-4.699.369-6.634 2.211-6.634 2.211l5.897.369c-2.948-.276-6.173 2.948-6.173 2.948l3.87.092c-3.593.369-4.422 2.395-4.422 2.395l3.133.092c-3.225 1.843-3.409 4.975-3.409 4.975l3.593-2.856c-3.777 3.317-2.488 6.081-2.488 6.081l2.303-2.672c-3.225 3.133-2.488 5.344-2.488 5.344l2.395-2.58c-1.198 7.831.461 8.016.461 8.016l.553-7.924c2.027 1.013 3.317 5.62 3.317 5.62l-1.751-7.279c1.935 1.382 2.488 4.238 2.488 4.238.737-3.317-2.303-7.647-2.303-7.647l3.777 4.791-2.856-7.279 3.317 4.975c.092-4.699-2.58-7.647-2.58-7.647l4.054 3.501c-.184-1.474-2.303-5.344-2.303-5.344.829.645 2.395 2.58 2.395 2.58-.553-2.303-2.856-4.975-2.856-4.975 1.106.276 2.948 2.58 2.948 2.58 0-1.29-1.29-6.081-1.29-6.081l1.382 2.948-.553-4.791 1.198 1.843-.276-3.317.829.184.553-3.962-.276 4.054-.921-.369.276 3.225 2.856-3.133-1.658 5.62 2.856-2.672-2.303 4.883 3.317-3.87-2.488 6.357 2.672-2.303-2.488 4.607c1.382 0 4.146-3.04 4.146-3.04-1.382.829-3.409 5.897-3.409 5.897 1.751 0 2.948-3.133 2.948-3.133l-2.856 5.252c1.751-.553 3.685-3.87 3.685-3.87.369 1.843-3.04 7.831-3.04 7.831 1.106 0 2.856-1.474 2.856-1.474s.276-1.198-.921 1.013-3.962 4.883-3.962 4.883c2.395.092 4.699-3.133 4.699-3.133.369 1.474-2.856 7.279-2.856 7.279 2.303-.184 4.238-6.634 4.238-6.634.737.829 1.198 8.292 1.382 7.371s.092-10.135.092-10.135c.461.645 2.344 4.863 2.344 4.863.137-2.06-2.06-10.024-2.06-10.024l2.609 4.806-3.158-9.201 3.845 4.669-4.806-9.338 2.472 3.708c-.824-6.317-4.944-6.317-4.944-6.317 4.944-.687 5.356 5.493 5.356 5.493 1.099-.275.961-3.433.961-3.433l.275 1.511.824 5.218.549-4.532v5.63c0 .549 1.648-3.296 1.648-3.296.412.687.412 5.356.412 5.356l1.373-3.708c.824 2.197.275 5.905.275 5.905 1.373 0 1.785-3.296 1.785-3.296l1.648 4.806-.137-3.57c-.137-3.57-4.944-10.574-6.179-11.26s-6.042-2.197-6.042-2.197l-4.532-4.257 4.532 4.257c.549-.687-.549-4.12-.549-4.12l3.57 4.669c.824-1.648-.824-4.394-.824-4.394 1.099 1.236 4.257 5.767 4.257 5.767.412-1.648-.824-5.356-.824-5.356.961.961 4.394 6.591 4.394 6.591-.137-.549-2.06-6.179-2.06-6.179 2.334 2.06 4.669 8.651 4.669 8.651.687-2.197-.961-7.965-.961-7.965l3.982 9.475c.412-1.923-.275-5.767-.275-5.767 1.236 1.099 3.296 6.042 3.296 6.042-.275-2.884-1.099-6.454-1.099-6.454l3.57 6.591-.687-4.394 2.197 4.806-1.099-4.257 3.021 4.257-2.472-4.532 3.57 3.57s-5.218-6.454-6.317-7.415-10.848-4.532-13.046-5.63-11.81-.549-11.81-.549l2.884-.137-.549-1.236.549 1.099h1.923l-1.099-1.099.824 1.236h3.296l-2.197-1.923c1.099.549 2.197 1.785 2.197 1.785l1.648.137-1.099-2.334 1.648 2.609 2.746.549c-.412-1.236-2.06-3.158-2.06-3.158 1.099 1.099 2.472 3.296 2.472 3.296l2.334.824c0-1.236-1.923-3.982-1.923-3.982 1.648 1.373 3.021 4.257 3.021 4.257.137-1.099-.824-4.394-.824-4.394 1.099.687 2.884 4.944 2.884 4.944.137-1.236-.137-4.944-.412-4.806.824.961 2.609 5.905 2.609 5.905v-4.806c.549 0 2.06 5.218 2.06 5.218.824-1.923-.137-5.905-.137-5.905.687 1.373 2.197 5.767 2.197 5.767l.275-1.922.412 3.57.412-3.021 1.236 3.296c-.137-1.923-1.648-7.141-1.648-7.141 1.099 1.099 3.982 7.553 3.982 7.553v-2.334l.824 3.708c1.236-3.708-1.373-7.827-1.373-7.827 1.923 2.746 2.609 6.317 2.609 6.317l.824-1.923c.824 1.373.824 4.944.824 4.944 1.099-3.845-1.099-7.278-1.099-7.278 2.334 1.785 3.708 9.063 3.708 9.063l.412-5.63c.687 1.373 1.99 5.651 1.99 5.651.313-2.383-.69-6.395-2.006-8.151s-2.383-3.574-10.659-5.329-28.277-.251-28.277-.251l3.198-.69c2.069-1.63 6.834-.251 6.834-.251l1.191.063-.251-1.881c-.063-.502 2.257 1.63 2.257 1.63l.815.063v-2.383l3.386 2.571 1.254.188-2.194-2.947c1.254 1.191 5.016 2.696 5.016 2.696-.251-1.066-3.072-3.323-3.072-3.323.94 0 4.828 3.511 4.828 3.511l-2.32-2.696 5.58 2.633c-.376-.69-2.257-2.633-2.257-2.633 2.194 2.006 6.709 3.198 6.709 3.198l-5.329-4.264 6.646 5.204c-1.066-3.26-4.326-6.145-4.326-6.145 1.63.251 7.837 6.395 7.837 6.395 0-2.445-2.32-5.329-2.32-5.329 1.63.564 5.768 6.207 5.768 6.207.188-1.505-2.194-5.455-2.194-5.455 1.254.627 4.64 5.518 4.64 5.518.752-2.821-2.445-5.329-2.445-5.329l6.419 3.526c-3.347-5.02-10.103-6.694-10.908-7.004s-6.756-.31-11.9-.124-11.714 3.161-12.024 3.223-5.578 1.673-5.578 1.673l-1.426-.558 1.797.434 2.479-.682-2.479-1.549 3.223 1.24 1.673-.62-2.417-1.426 2.603 1.178 3.843-1.426-4.401-1.673 6.942.062-5.268-1.859 8.553 1.426c-.744-.93-3.161-1.735-3.161-1.735 1.735 0 5.702.93 5.702.93-.744-.868-4.153-2.417-4.153-2.417 1.859.372 6.818 1.859 6.818 1.859l-3.657-2.541 3.533 1.364c-.62-1.116-2.603-2.045-2.603-2.045.806 0 6.756 2.913 6.756 2.913-1.302-2.107-4.153-5.082-4.153-5.082l3.657 2.293-2.107-2.417 5.454 2.541c-1.859-2.603-6.012-4.091-7.252-4.277s-9.979.806-16.858 5.702-7.685 9.421-7.685 9.421-7.051-15.28-19.397-16.201c0 0 1.935 1.843 5.712 2.672 0 0-4.146.921-5.159 2.395 0 0 4.607-.369 7.555.461 0 0-4.883 1.013-5.62 2.303 0 0 5.252-.553 8.016-.092 0 0-4.699.645-4.883 1.751 0 0 7.279 0 7.555 1.382 0 0-4.975-.184-6.265.645 0 0 6.541.921 7.831 1.843l-4.054.645s5.252 1.106 5.897 2.58c0 0-11.609-5.067-21.099-6.081s-12.346 1.474-14.004 2.856-5.436 4.975-4.791 7.923c0 0 2.027-3.962 6.91-7.094l-4.422 5.344 4.975-4.054s-3.04 4.146-3.04 5.528c0 0 4.699-7.647 6.726-9.029 0 0-3.409 4.33-3.317 5.989 0 0 6.541-6.449 7.186-6.357 0 0-4.975 4.515-4.883 7.463 0 0 5.712-6.081 7.463-6.634 0 0-4.33 2.488-3.501 4.607l4.699-4.33-2.856 4.607 1.382-.461s2.027-3.87 4.883-3.777l-3.777 3.593 1.935-.184s2.211-2.764 4.883-3.685c0 0-3.87 3.133-4.054 3.685l1.198.092s2.303-2.395 4.054-2.856l-1.658 2.672h.829l2.211-2.119-1.566 2.027 2.027.184 1.474-1.29-1.198 1.474h1.474l.921-.737-.092.921 2.395.092.645-1.29-.092 1.106z" class="m"/><path d="M488.754-36.478l-1.658 1.934-.184.051v.226s-6.449 2.395-11.24 6.541-7.739 8.753-8.292 10.964-.645 8.384-.645 8.384.921-5.16 1.474-5.897c0 0 0 3.225.461 3.962l.553-6.449s.184 4.607 1.197 5.067c0 0-.276-5.805.461-7.647 0 0-.276 3.133.277 3.962 0 0 .829-7.279 2.764-9.214 0 0-2.303 3.778-.829 9.122l.444-2.037-.628.102.667-.28.622-2.852.923 2.202.373-.156.233-1.917-2.357-.221 2.824-.421.031-.955-1.381-.189 1.395-.279.038-1.195h-1.065l1.073-.258.032-1.032.12.995 1.513-.365.21-.999.207.898.123-.03.254-1.567-.308-.039.321-.044.232-1.431.181 1.375.715-.098.394-2.013.461 1.842s1.198-3.962 2.119-4.422l.073 2.411.43-.082 1.985-3.435-.036 1.121.781-.217.822-1.918.553 1.474.922-1.106.436.776 7.671-2.619c-.369-.461-2.303-.461-2.303-.461l.276-1.474-.737 1.474h-.829l.092-1.014-.553 1.014-1.751-.092.461-1.106-1.013 1.014h-2.396zm-3.451 5.827l-.05 1.543.639-1.492a11.09 11.09 0 0 0-.59-.052zm-6.109 4.678l.171 1.299.217-.052.229-1.17zm-2.722 2.301l.135 1.121 1.011-.202.192-.918zm.208 1.726l.097.805.519-.077.131-.625zm-.841 1.546l.292 1.242.039-1.211zm1.039.097l.082.684.139-.663zm-1.468 2.489l-.066.011.05.119z" class="q"/></g><path d="M502.997-51.5l-.808 11.126 1.355 2.499s.153-.845.875-2.196l-.354-10.991a8.87 8.87 0 0 0-1.068-.438zm1.517 14.371l-.405.087.411.113z" class="i m"/><path d="M467.962 63.661s3.837-2.193 6.03-.091l-.731 1.553-3.746.274z" stroke-width=".29" class="h"/><g fill="green"><path d="M470.708 58.891l-.076 5.949.761.007.076-5.95z" stroke-width=".164"/><path d="M468.076 65.611s.773.32.618 1.471-.464 5.31 2.472 5.31 2.55-4.03 2.55-4.67.232-1.855.232-1.855v-2.303s-2.936 2.175-5.872-.064z" class="j"/></g></g><g class="h"><path d="M474.893 325.38s-.186 1.113-.186 2.23c0 .558.043 1.117.193 1.558.075.221.176.415.335.568.036.034.077.065.12.094.199-.002.377-.026.534-.071l-.01-.195a.29.29 0 0 1-.247-.098c-.084-.08-.166-.223-.23-.409-.127-.372-.176-.908-.176-1.447 0-1.078.183-2.172.183-2.172z"/><path d="M477.525 324.441c-2.116.673-3.652.453-4.651.079v.144a.87.87 0 0 0 .433.483c1.96.926 3.493.175 4.239-.361z" stroke-width=".119" class="k"/></g><path d="M467.714 363.843l-.552-.103-.788 3.987 2.63.493.095-.478-2.079-.389zm2.177 1.85l.417.066.238-1.423-.417-.066zm4.036-.882l-.357 2.542q-.045.326-.167.521-.127.206-.307.308-.359.192-.769.132-.182-.024-.36-.106-.175-.079-.315-.223-.131-.143-.194-.374-.068-.226-.023-.552l.355-2.531-.557-.074-.377 2.685q-.088.582.239 1.052.324.484 1.147.604.853.102 1.323-.287.465-.378.554-1.011l.366-2.61zm3.72 3.699l-.011-.001-1.725-3.471-.663-.067-.432 4.039.542.055.35-3.263.011.001 1.762 3.478.629.064.432-4.039-.545-.055zm2.356-3.088l-.562-.047-.36 4.045.562.047zm4.011 2.331q-.059.721-.471 1.152-.416.437-1.098.395-.684-.053-1.027-.542-.354-.485-.301-1.206.053-.733.475-1.158.41-.431 1.095-.389.682.053 1.031.537.346.478.298 1.211zm.577.04q.025-.339-.038-.717-.077-.379-.287-.712-.208-.344-.581-.575-.388-.223-.965-.269-.286-.02-.533.013-.247.036-.45.121-.405.177-.667.488-.252.301-.379.666-.132.364-.157.703-.024.328.054.702.072.373.277.717.214.342.589.572.373.236.953.282.295.02.542-.026.247-.033.452-.121.403-.177.659-.486.256-.312.388-.671.117-.36.142-.688zm3.321 1.42h-.011l-1.906-3.38-.666-.034-.219 4.055.544.028.177-3.276h.011l1.943 3.385.632.033.219-4.055-.547-.028zm3.689-.917l2.045.064.016-.486-2.045-.064.041-1.242 2.322.073.016-.486-2.887-.091-.135 4.058.565.018zm4.8.784l.388 1.189.616.012-1.429-4.087-.638-.012-1.649 4.03.579.011.46-1.174zm-1.491-.514l.705-1.774h.011l.58 1.798zm3.723-2.34l-.565-.004-.034 4.06.565.004zm.397.494l1.41-.018.048 3.573.565-.007-.048-3.573 1.413-.018-.007-.486-3.387.043zm6.047-.597l-.562.017.13 4.058 2.677-.081-.016-.486-2.115.064zm5.079 2.695l.464 1.164.615-.026-1.689-3.992-.638.027-1.386 4.122.578-.025.384-1.199zm-1.521-.422l.589-1.813.011-.001.695 1.759zm5.237-.436l2.041-.127-.032-.485-2.041.127-.082-1.24 2.319-.145-.032-.485-2.882.18.267 4.052.563-.035zm6.134-.63q.056.722-.284 1.209-.342.493-1.023.554-.685.05-1.1-.382-.426-.426-.488-1.147-.063-.732.286-1.215.337-.488 1.021-.548.682-.05 1.102.376.417.421.486 1.152zm.577-.046q-.029-.339-.151-.702-.136-.363-.395-.661-.26-.309-.664-.481-.418-.163-.996-.122-.286.023-.525.092-.239.072-.425.187-.373.235-.582.582-.202.335-.269.715-.073.38-.044.719.028.327.164.685.131.358.387.667.265.305.673.478.405.178.985.136.294-.024.532-.107.239-.069.428-.187.37-.235.574-.578.204-.347.277-.721.059-.374.031-.701zm1.274.16l1.356-.143q.249-.026.41.02.154.045.239.144.088.094.124.22.031.127.045.257.015.137.075.464.031.152.064.296.034.143.072.243l.688-.073-.01-.091q-.129-.058-.181-.139-.049-.081-.072-.243l-.115-.726q-.034-.208-.087-.343-.061-.133-.139-.196-.077-.078-.164-.113-.092-.032-.192-.055.096-.066.19-.162.091-.084.166-.201.075-.122.108-.284.028-.161.003-.381-.081-.627-.517-.82-.434-.181-.967-.12l-1.918.203.452 4.036.562-.06zm-.205-1.837l1.396-.148q.231-.03.491.048.123.051.214.178.092.132.118.368.025.219-.031.361-.054.15-.168.234-.113.087-.26.125-.146.049-.307.066l-1.301.138zm6.971-.104q-.134-.52-.612-.847-.475-.333-1.278-.233-.906.137-1.325.773-.428.643-.294 1.589.179 1.144.823 1.565.618.422 1.35.315.127-.018.379-.091.252-.077.523-.262.273-.192.466-.556.194-.359.205-.926l-.542.075q-.018.351-.12.588-.106.238-.265.38-.158.136-.322.209-.167.071-.311.091-.753.099-1.136-.339-.378-.422-.478-1.147-.111-.794.226-1.254.315-.448.891-.529.16-.022.338-.025.176.009.358.076.179.067.335.216.156.146.249.406zm4.114 1.647l-2.469.459-.262-1.335 2.244-.417-.094-.478-2.244.417-.24-1.221 2.43-.452-.094-.478-2.985.555.783 3.988 3.024-.563z" letter-spacing="0" word-spacing="0"/><defs><path id="A" d="M466.579 21.667l7.546 15.955 1.725-.862 13.475 25.442.108-4.312-12.782-22.496.599-.466-.862-.97-.418.239-.013-.023s-.862-.107-.97.216z"/><path id="B" d="M466.579 21.667l7.546 15.955 1.725-.862-.909-2.442zm15.287 22.904c-.439.159-1.091.417-1.514.688l1.86 3.513c.308-.229.904-.617 1.507-.692.047-.006.083-.024.112-.049z"/><path id="C" d="M476.389 33.957l-.389.222.665 1.204.586-.456z"/><path id="D" d="M466.579 21.667l7.546 15.955 1.725-.862-.909-2.442z"/><path id="E" d="M471.5 15.643l5.918 16.628 1.802-.686-.661-2.521z"/><path id="F" d="M480.036 28.85l-.409.182.542 1.264.629-.395z"/><path id="G" d="M482.779 36.234c-.521.143-.987.471-1.345.781l1.432 3.511c.43-.265.995-.505 1.505-.695z"/><path id="H" d="M471.5 15.643l5.918 16.628 1.802-.686 10.871 26.659.537-4.28-10.475-23.659.643-.404-.761-1.052-.44.196-.011-.024s-.847-.193-.987.118z"/><path id="I" d="M531.908 13.848c-1.863.819-3.542.164-3.542.164s-.819 1.065 1.392 1.187c0 0 .88.082.287 1.065"/><path id="J" d="M534.529 11.944s-3.337-2.723-5.446-2.559-2.211.123-2.395.491-.553 2.068.389 3.317 1.331.942 1.495.676 1.495-1.044 4.013-.471"/><path id="K" d="M529.284 9.378a2.43 2.43 0 0 0-.201.007c-2.109.164-2.211.123-2.396.491-.127.254-.341 1.138-.155 2.072.315-.302.964-.588 2.304-.516 2.662.143 4.218 1.229 4.218 1.229l.263.188 1.211-.905s-3.132-2.555-5.245-2.566z"/><path id="L" d="M511.016 41.954s2.949 6.765 2.486 15.496l17.809-16.594 8.5-7.69-.173.116-1.099-5.319-.52-3.007-1.388.347v-1.735l-.231-1.503-1.214-2.371-.983-2.544-.231-2.139.463-2.544-.636.289z"/><path id="M" d="M563.748 43.227s1.735 1.735 1.966 5.666l.173 6.649s-2.833 1.677-5.493.983c0 0 .463-1.156.52-2.775s-.058-10.003-.058-10.003z"/><path id="N" d="M562.13 43.747l-1.271.085.057 9.918c-.058 1.619-.52 2.776-.52 2.776.973.254 1.968.189 2.84.006l.282-7.638c-.058-2.602-1.388-5.146-1.388-5.146z"/><path id="O" d="M584.629 114.809c.532-1.384 1.969-1.703 1.969-1.703s.106-.106-.319-1.118-.213-1.756-.213-1.756c.16-5.376-.373-6.813-.373-6.813.373 0 2.076 2.023 2.076 2.023-.053-5.11-7.611-7.505-7.611-7.505 2.768 7.026 1.703 7.824 1.703 7.824 1.756-.745 1.969-1.916 1.969-1.916.319 1.916.053 5.642.053 5.642s.106 1.756-1.544.905-8.303-4.045-8.303-4.045l-.692 1.384 9.155 4.258s1.331.585.958 1.597-.585 1.171-.585 1.171z"/><path id="P" d="M583.884 109.486s.266-3.726-.053-5.642c0 0-.213 1.171-1.969 1.916 0 0 1.065-.798-1.703-7.824 0 0 7.558 2.395 7.611 7.505 0 0-1.703-2.023-2.076-2.023 0 0 .532 1.437.373 6.813"/><path id="Q" d="M584.629 114.809c.532-1.384 1.969-1.703 1.969-1.703s.106-.106-.319-1.118-.213-1.756-.213-1.756c.16-5.376-.373-6.813-.373-6.813.373 0 2.076 2.023 2.076 2.023-.053-5.11-7.611-7.505-7.611-7.505 2.768 7.026 1.703 7.824 1.703 7.824 1.756-.745 1.969-1.916 1.969-1.916.319 1.916.053 5.642.053 5.642s.106 1.756-1.544.905-8.303-4.045-8.303-4.045l-.692 1.384 9.155 4.258s1.331.585.958 1.597-.585 1.171-.585 1.171"/><path id="R" d="M570.684 104.471a1.63 1.63 0 0 0-.977.32c-.174.136-.322.344-.367.609s.01.576.184.938c.36.75 1.077 1.025 1.664 1.104s1.084-.023 1.084-.023l-.088-.441s-.434.085-.937.018-1.038-.271-1.316-.852c-.146-.304-.172-.519-.146-.668s.095-.245.201-.328c.211-.166.59-.225.699-.225.185 0 .344-.029.645.121s.73.497 1.303 1.277l.363-.268c-.598-.816-1.073-1.216-1.465-1.412s-.711-.17-.846-.17z"/><path id="S" d="M571.376 109.274s.213-3.513 2.448-4.737c0 0 .532.053.585.479s-2.076 4.152-2.076 4.152z"/><path id="T" d="M571.629 108.879s.177-2.927 2.04-3.947c0 0 .443.044.488.399s-1.73 3.459-1.73 3.459z"/><path id="U" d="M581.874 75.422s4.03.232 3.983 2.223-.648 3.937.695 4.307 4.122.371 4.817 1.112.695 1.575.695 1.575-3.474-1.251-5.002-.371-3.128-.509-3.381-.973c-.556-1.019-.232-3.011-1.297-3.381s-4.446-.417-4.446-.417z"/><path id="V" d="M543.911-1.2l-4.364 10.177s-1.269-1.289-2.296.048l-1.024 1.333m7.668-11.57l-8.424 7.188s1.607.829.635 2.207l-.969 1.373 1.089.802"/><path id="W" d="M493.047-199.533h7.427v2.665h-7.427z"/><path id="X" d="M493.545-199.078h6.431v1.755h-6.431z"/><path id="Y" d="M552.991 23.897s-5.495-1.051-6.834-.239 2.342.86 3.058.621l-1.386 1.386s-3.154-.765-3.68-3.727 1.577-2.963 2.055-2.915 3.25.478 6.786 4.874z"/><path id="Z" d="M545.101 20.784c-.604.179-1.059.604-.903 1.393 0 0 .239.908.478 1.386a.3.3 0 0 1 .073-.084c.181.283.387.534.606.753l.539-.177c-.068-.105-.003-.235.264-.397.148-.09.349-.156.587-.204.998-.383 2.491.014 2.806-.035l1.673.096s-4.979-3.07-6.121-2.731z"/><path id="a" d="M552.275 23.853c-.143.69-.301 1.596-.22 2.002 1.79 4.572 4.223 4.671 3.269 10.226l1.885-.053c.203-2.577-.203-5.018-.678-6.104-.237-.543-.763-1.187-1.339-1.814s-1.204-1.238-1.645-1.713c-.882-.949-.271-2.17-.271-2.17z"/><path id="b" d="M551.106 23.414s-.332.874-.332 2.1c0 .613.083 1.314.332 2.037s.46 1.44.633 2.233c.347 1.587.542 3.486.588 6.38l2.998-.083c.954-5.555-1.479-5.654-3.269-10.226-.081-.406.077-1.313.22-2.002z"/><path id="c" d="M553.276 24.228s-.61 1.221.271 2.17l1.645 1.712c.576.627 1.102 1.272 1.339 1.814.475 1.085.882 3.527.678 6.104m0 0l-4.883.136c-.045-2.894-.241-4.793-.588-6.38a19.6 19.6 0 0 0-.633-2.233 6.26 6.26 0 0 1-.332-2.037c0-1.226.332-2.1.332-2.1l2.17.814"/><path id="d" d="M548.427 80.397l-4.217 7.381-16.666 1.24-1.575.212s-2.434 5.738-5.137 6.502-20.781 6.402-20.781 6.402l-.556-4.133 11.715-3.78s3.437-1.264 4.459-2.604 9.543-9.5 9.543-9.5z"/><path id="e" d="M540.471 63.209s.684.648 1.533-.389 3.332-5.311 3.807-6.089 1.087-1.425.281-1.943-1.936.13-2.864 2.073-3.98 5.311-2.756 6.348z"/><path id="f" d="M218.18 61.609c-.87 0-2.104 1.868-2.104 4.826s.705 5.355 1.575 5.355c.318-.002.628-.332.89-.945h46.514l-.199-8.761-46.052.712c-.298-1.091-.186-1.183-.624-1.185z"/><path id="g" d="M263.025 62.156s-.207.466-.277.758m-.727-.741s-.207.466-.277.758m-.727-.741s-.207.466-.277.758m-.727-.741s-.207.466-.277.758m-.727-.741s-.207.466-.277.758m-.727-.741s-.207.466-.277.758m-.727-.741s-.207.466-.277.758m-.727-.741s-.207.466-.277.758m-.727-.741s-.207.466-.277.758m-.727-.741s-.207.466-.277.758m-.727-.741s-.207.466-.277.758m-.727-.741s-.207.466-.277.758m-.727-.741s-.207.466-.277.758m-.727-.741s-.207.466-.277.758m-.727-.741s-.207.466-.277.758m-.727-.741s-.207.466-.277.758m-.727-.741s-.207.466-.277.758m-.727-.741s-.207.466-.277.758m-.727-.741s-.207.466-.277.758m-.727-.741s-.207.466-.277.758m-.727-.741s-.207.466-.277.758m-.727-.741s-.207.466-.277.758m-.727-.741s-.207.466-.277.758m-.727-.741s-.207.466-.277.758m-.727-.741s-.207.466-.277.758m-.727-.741s-.207.466-.277.758m-.727-.741s-.207.466-.277.758m-.727-.741s-.207.466-.277.758m-.727-.741s-.207.466-.277.758m-.727-.741s-.207.466-.277.758m-.727-.741s-.207.466-.277.758m-.727-.741s-.207.466-.277.758m-.727-.741s-.207.466-.277.758m-.727-.741s-.207.466-.277.758m-.727-.741s-.207.466-.277.758m-.727-.741s-.207.466-.277.758m-.727-.741s-.207.466-.277.758m-.727-.741s-.207.466-.277.758m-.727-.741s-.207.466-.277.758m-.727-.741s-.207.466-.277.758m-.727-.741s-.207.466-.277.758m-.727-.741s-.207.466-.277.758m-.727-.741s-.207.466-.277.758m-.727-.741s-.207.466-.277.758m-.727-.741s-.207.466-.277.758"/><path id="h" d="M225.229 61.961a4.853 1.472 86.347 0 0-1.157 4.948 4.853 1.472 86.347 0 0 1.781 4.738 4.853 1.472 86.347 0 0 .43-.266 4.853 1.472 86.347 0 1-1.257-4.472 4.853 1.472 86.347 0 1 .726-4.682 4.853 1.472 86.347 0 0-.525-.266z"/><path id="i" d="M265.469 64.91l2.557-.521s1.657.331 1.846.994.379 1.657.284 1.941-3.03 1.231-4.214.426z"/><path id="j" d="M269.872 65.383c-.998.392-2.832.535-4.226.588l.297 1.78c1.184.805 4.119-.142 4.214-.426s-.095-1.279-.284-1.941z"/><path id="k" d="M264.574 61.882c-.103.006-.201.085-.289.232.346.901.618 2.452.725 4.124.122 1.924.003 3.685-.303 4.516.166.331.337.5.499.495.271-.012.498-.517.63-1.404s.16-2.083.076-3.325-.272-2.428-.522-3.298-.544-1.351-.815-1.339z"/><path id="l" d="M443.728 74.86v.033c.553.125.964.615.964 1.207v8.269l-5.847-5.847c-.419-.419-.474-1.056-.172-1.535l-.024-.023-2.533 2.533.01.01a1.23 1.23 0 0 1 1.646.088l5.945 5.945h-8.465c-.592 0-1.082-.411-1.207-.964h-.033v3.582h.014c.069-.621.586-1.102 1.226-1.102h8.408l-5.985 5.985c-.419.419-1.056.475-1.536.172l-.023.023 2.533 2.533.01-.01a1.23 1.23 0 0 1 .088-1.646l5.945-5.945v8.465c0 .592-.411 1.082-.964 1.207v.033h3.583v-.014c-.621-.069-1.102-.586-1.102-1.226V88.03l6.083 6.083c.452.452.478 1.159.088 1.646l.01.01 2.534-2.533-.024-.023c-.479.303-1.117.246-1.535-.172l-5.985-5.985h8.407c.64 0 1.157.481 1.226 1.102h.014v-3.582h-.033c-.125.553-.615.964-1.207.964h-8.464l5.945-5.945c.452-.452 1.159-.478 1.646-.088l.01-.01-2.534-2.533-.023.023c.303.479.247 1.117-.172 1.535l-5.986 5.986V76.1c0-.64.481-1.157 1.102-1.226v-.014z"/><path id="m" d="M445.451 71.277a15.09 15.09 0 1 0 0 30.18c8.334 0 15.09-6.756 15.09-15.09s-6.756-15.09-15.09-15.09zm0 3.84c6.213 0 11.25 5.037 11.25 11.25s-5.037 11.25-11.25 11.25-11.25-5.037-11.25-11.25 5.037-11.25 11.25-11.25z"/><path id="n" d="M486.18 68.609s-5.88 2.534-6.386-1.825c0 0-3.548 4.46 1.318 7.299 0 0-2.23-3.548 5.069-3.954 0 0 1.014.101.912-.71s-.912-.811-.912-.811z"/><path id="o" d="M487.098 69.561c-.833.073-2.732.283-5.683.873-1.31.262-2.226.099-2.87-.239-.009 1.289.572 2.725 2.566 3.888 0 0-2.23-3.548 5.068-3.954 0 0 .892.089.919-.569z"/><path id="p" d="M472.761 84.818c-.329-.016-.648.039-.736.236-.176.395.351.483.351.483v2.24c0 .703-.571 11.286-.835 13.351-.095.745-.275 1.364-.468 1.851 0 0-2.519.301-2.387 1.443s1.494 1.897 3.777 1.845c2.815-.064 3.601-.659 3.733-1.362s-.659-1.361-1.844-1.581l-.615-3.513s.132.527 1.756.176 1.581-2.811 1.581-2.811l-.044-8.74c-.088-1.361-.835-2.02-1.889-2.415-.834-.132-1.405.044-1.493.527s-.307.615-.439.439 0-1.493 0-1.493.615-.307.351-.483c-.132-.088-.472-.176-.802-.192zm2.119 2.52l.571.307.176 1.581v7.993l-.088.527-.747.615-.834-.176-.439-.527-.307-7.158-.088-2.284 1.054-.703z"/><path id="q" d="M474.573 104.158s-.966-2.459-1.186-8.915v-7.29c.307-.307 1.186-.834 1.713-.527s.395.395.483 1.493.088 8.213.088 8.213-.264 1.186-.922 1.142-1.142-.307-1.23-.791"/><path id="r" d="M524.804 96.618s-3.224.095-4.267 2.086-.474 3.888.759 4.647 3.888 1.328 5.121.569 2.086-3.224.664-3.509-3.793-.759-3.509-1.707 1.517-.948 1.517-.948z"/><path id="s" d="M583.64 73.375a.375.375 0 0 0-.262.114l-12.924 12.83a.375.375 0 1 0 .53.531l12.704-12.612v-.86a.375.375 0 0 0-.048-.003z"/><path id="t" d="M572.558 84.398a.375.375 0 0 0-.257.113L559.47 97.249l1.123-.057 12.235-12.147a.375.375 0 0 0-.27-.646z"/><path id="u" d="M535.734 13.089s-.188 1.876 1.407 3.002 3.471 2.346 4.222 5.536.188 2.815.188 2.815l-4.973.844s.563-2.252-.657-4.034-3.002-6.943-1.314-9.007z"/><path id="v" d="M535.576 12.971c-.296.725-.815 2.45.346 3.683 1.501 1.595 2.909 2.346 3.472 4.504a34.58 34.58 0 0 1 .696 3.532l1.462-.248s.563.376-.188-2.814-2.627-4.41-4.222-5.536-1.408-3.002-1.408-3.002z"/><path id="w" d="M573.904 106.957a.2.2 0 1 0 .063.395s3.398-.534 5.924 2.041a.2.2 0 1 0 .285-.279c-2.671-2.722-6.271-2.156-6.271-2.156z"/><path id="x" d="M579.832 110.797s-.007.534.43 1.047 1.302 1.006 2.963 1.057l.012-.4c-1.587-.049-2.319-.504-2.67-.916s-.334-.777-.334-.777z"/><path id="y" d="M584.629 114.809c.532-1.384 1.969-1.703 1.969-1.703s.106-.106-.319-1.118-.213-1.756-.213-1.756c.16-5.376-.373-6.813-.373-6.813.373 0 2.076 2.023 2.076 2.023-.053-5.11-7.611-7.505-7.611-7.505 2.768 7.026 1.703 7.824 1.703 7.824 1.756-.745 1.969-1.916 1.969-1.916.319 1.916.053 5.642.053 5.642s.106 1.756-1.544.905c-.883-.456-5.161-2.531-5.161-2.531l-.408 1.463 5.729 2.665s1.331.585.958 1.597-.585 1.171-.585 1.171z"/><path id="z" d="M574.839 106.909l.206.405.3.019-.202-.412-.304-.011zm1.013.08l.141.419.291.056-.138-.43-.294-.045zm1.092.226l.068.435.276.091-.063-.438-.281-.088zm1.091.398l-.014.437.257.132.02-.437-.263-.132zm1.006.561l-.092.419.232.171.095-.426-.235-.164z"/><path id="AA" d="M580.476 111.465l-.19.404a2.15 2.15 0 0 0 .201.197l.178-.38-.098-.102a1.61 1.61 0 0 1-.09-.119zm.544.498l-.051.434a3.3 3.3 0 0 0 .253.119l.049-.417a2.54 2.54 0 0 1-.251-.136zm.634.289l.079.441.28.067-.076-.427-.283-.081zm.565.145l.187.43.305.039-.184-.425-.307-.044z"/><path id="AB" d="M560.742 38.89s-3.007-1.446-3.7-.231-.983 3.643 0 5.088c0 0 4.279.52 6.476-.231l.289-.173z"/><path id="AC" d="M557.76 40.215c-.478-.011-.934.138-1.296.306-.146 1.11-.02 2.348.576 3.225 0 0 3.789.461 6.066-.112-1.096-.344-2.984-2.154-4.274-3.068-.347-.246-.716-.344-1.073-.352z"/><path id="AD" d="M563.748 43.227s1.735 1.735 1.966 5.666l.173 6.649s-2.833 1.677-5.493.983c0 0 .463-1.156.52-2.775s-.058-10.003-.058-10.003"/><path id="AE" d="M550.793 23.324s-6.124-1.831-6.124-.063"/><path id="AF" d="M540.959 61.578l-24.223 40.371.514.309 24.223-40.371z"/><path id="AG" d="M217.624 65.849h47.106m-47.106 1.058h47.106m-47.106 1.059h47.106m-47.106.529h47.106m-47.106.529h47.106m-47.106.529h47.106m-47.106.529h47.106m-47.106.529h47.106"/><path id="AH" d="M483.588 68.572l-.494.074 2.027 13.584.494-.074z"/><path id="AI" d="M483.787 68.543l-.891.133.408 2.736.891-.133z"/><path id="AJ" d="M470.357 104.29s.922-1.098 1.186-3.162.834-12.648.834-13.351v-2.24"/><path id="AK" d="M570.121 86.252l-13.617 7.086.072.138.958.173 12.935-6.733z"/><path id="AL" d="M570.523 86.586l-7.673 13.586 1.244-.68 7.083-12.538z"/><path id="AM" d="M534.984 12.151s-.938 2.158.094 4.316 2.064 3.19 2.627 4.597 0 2.721.657 3.753"/><path id="AN" d="M556.463 42.648s1.446-.983 3.758.058 2.313.867 2.313.867"/></defs></svg>