<?xml version="1.0" encoding="UTF-8"?>
<svg version="1.1" viewBox="0 0 1000 500" xmlns="http://www.w3.org/2000/svg">
		<path d="m0 0h1e3v160h-1e3z" fill="#0099b5"/>
		<path d="m140 20a60 60 0 0 0-60 60 60 60 0 0 0 60 60 60 60 0 0 0 10-0.92969 60 60 0 0 1-6.9043-1.5 60 60 0 0 1-8.0215-2.9922 60 60 0 0 1-7.5117-4.1035 60 60 0 0 1-6.8535-5.1289 60 60 0 0 1-6.0547-6.0547 60 60 0 0 1-5.1289-6.8535 60 60 0 0 1-4.1035-7.5117 60 60 0 0 1-2.9922-8.0215 60 60 0 0 1-1.8184-8.3652 60 60 0 0 1-0.61133-8.5391 60 60 0 0 1 0.61133-8.5391 60 60 0 0 1 1.8184-8.3652 60 60 0 0 1 2.9922-8.0215 60 60 0 0 1 4.1035-7.5117 60 60 0 0 1 5.1289-6.8535 60 60 0 0 1 6.0547-6.0547 60 60 0 0 1 6.8535-5.1289 60 60 0 0 1 7.5117-4.1035 60 60 0 0 1 8.0215-2.9922 60 60 0 0 1 7.0898-1.541 60 60 0 0 0-10.186-0.88867z" fill="#fff"/>
		<g fill="#fff">
				<path d="m272.04 20.439 2.6065 8.021 8.4338 3.2e-4 -6.8229 4.9575 2.6059 8.0212-6.8233-4.957-6.8233 4.957 2.6059-8.0212-6.8229-4.9575 8.4338-3.2e-4z"/>
				<path d="m320.04 20.354 2.6065 8.021 8.4338 3.2e-4 -6.8229 4.9575 2.6059 8.0212-6.8233-4.957-6.8233 4.957 2.6059-8.0212-6.8229-4.9575 8.4338-3.2e-4z"/>
				<path d="m368.04 20.354 2.6065 8.021 8.4338 3.2e-4 -6.8229 4.9575 2.6059 8.0212-6.8233-4.957-6.8233 4.957 2.6059-8.0212-6.8229-4.9575 8.4338-3.2e-4z"/>
				<path d="m224.04 68.354 2.6065 8.021 8.4338 3.2e-4 -6.8229 4.9575 2.6059 8.0212-6.8233-4.957-6.8233 4.957 2.6059-8.0212-6.8229-4.9575 8.4338-3.2e-4z"/>
				<path d="m272.04 68.439 2.6065 8.021 8.4338 3.2e-4 -6.8229 4.9575 2.6059 8.0212-6.8233-4.957-6.8233 4.957 2.6059-8.0212-6.8229-4.9575 8.4338-3.2e-4z"/>
				<path d="m320.04 68.354 2.6065 8.021 8.4338 3.2e-4 -6.8229 4.9575 2.6059 8.0212-6.8233-4.957-6.8233 4.957 2.6059-8.0212-6.8229-4.9575 8.4338-3.2e-4z"/>
				<path d="m368.04 68.354 2.6065 8.021 8.4338 3.2e-4 -6.8229 4.9575 2.6059 8.0212-6.8233-4.957-6.8233 4.957 2.6059-8.0212-6.8229-4.9575 8.4338-3.2e-4z"/>
				<path d="m176.04 116.35 2.6065 8.021 8.4338 3.2e-4 -6.8229 4.9576 2.6059 8.0212-6.8233-4.957-6.8233 4.957 2.6059-8.0212-6.8229-4.9576 8.4338-3.2e-4z"/>
				<path d="m224.04 116.35 2.6065 8.021 8.4338 3.2e-4 -6.8229 4.9576 2.6059 8.0212-6.8233-4.957-6.8233 4.957 2.6059-8.0212-6.8229-4.9576 8.4338-3.2e-4z"/>
				<path d="m272.04 116.44 2.6065 8.021 8.4338 3.2e-4 -6.8229 4.9576 2.6059 8.0212-6.8233-4.957-6.8233 4.957 2.6059-8.0212-6.8229-4.9576 8.4338-3.2e-4z"/>
				<path d="m320.04 116.35 2.6065 8.021 8.4338 3.2e-4 -6.8229 4.9576 2.6059 8.0212-6.8233-4.957-6.8233 4.957 2.6059-8.0212-6.8229-4.9576 8.4338-3.2e-4z"/>
				<path d="m368.04 116.35 2.6065 8.021 8.4338 3.2e-4 -6.8229 4.9576 2.6059 8.0212-6.8233-4.957-6.8233 4.957 2.6059-8.0212-6.8229-4.9576 8.4338-3.2e-4z"/>
		</g>
		<path d="M0 160h1000v180H0z" fill="#ce1126"/>
		<path d="M0 170h1000v160H0z" fill="#fff"/>
		<path d="m0 340h1e3v160h-1e3z" fill="#1eb53a"/>
</svg>
